<svg width="1297" height="852" viewBox="0 0 1297 852" fill="none" xmlns="http://www.w3.org/2000/svg">
<path d="M30.94 230.544H14.535L0.85 173.594H14.875L20.91 204.704L23.035 221.959L26.01 206.064L33.405 173.594H49.47L56.78 206.064L59.67 221.959L61.88 204.704L68 173.594H81.94L68.17 230.544H51.765L44.455 200.709L41.395 182.264L38.335 200.709L30.94 230.544ZM125.854 230.544H113.699V205.724C113.699 203.174 113.245 201.162 112.339 199.689C111.489 198.216 109.647 197.479 106.814 197.479C104.887 197.479 103.357 197.847 102.224 198.584C101.147 199.321 100.354 200.426 99.8438 201.899C99.3905 203.372 99.1638 205.242 99.1638 207.509L98.8238 203.174C99.1071 200.624 99.7588 198.187 100.779 195.864C101.799 193.541 103.3 191.671 105.284 190.254C107.324 188.781 109.93 188.044 113.104 188.044C117.07 188.044 120.187 189.206 122.454 191.529C124.72 193.852 125.854 197.167 125.854 201.474V230.544ZM99.1638 230.544H87.0088V173.594H99.1638V230.544ZM143.618 245.844C141.521 245.844 139.538 245.561 137.668 244.994C135.798 244.484 134.126 243.776 132.653 242.869C131.236 242.019 130.046 241.112 129.083 240.149L133.928 229.949C135.231 231.479 136.648 232.726 138.178 233.689C139.765 234.652 141.465 235.134 143.278 235.134C144.865 235.134 146.168 234.766 147.188 234.029C148.208 233.349 149.058 232.017 149.738 230.034L151.353 225.614L154.583 227.824H143.193L129.678 188.894H143.108L149.058 208.529L152.118 222.469L155.263 208.529L161.128 188.894H174.813L159.853 233.094C158.21 237.684 156.056 240.942 153.393 242.869C150.786 244.852 147.528 245.844 143.618 245.844ZM27.965 441.394C20.0317 441.394 14.0533 439.326 10.03 435.189C6.00667 430.996 3.995 424.451 3.995 415.554V383.594H16.15V415.724C16.15 420.597 17.1133 424.139 19.04 426.349C20.9667 428.559 23.97 429.664 28.05 429.664C32.2433 429.664 35.2467 428.559 37.06 426.349C38.93 424.139 39.865 420.597 39.865 415.724V383.594H52.02V415.554C52.02 424.451 50.0367 430.996 46.07 435.189C42.1033 439.326 36.0683 441.394 27.965 441.394ZM78.3952 441.394C75.3352 441.394 72.4169 441.054 69.6402 440.374C66.8636 439.637 64.4269 438.646 62.3302 437.399C60.2336 436.096 58.5619 434.622 57.3152 432.979L62.9252 424.734C64.1152 425.924 65.5319 427.114 67.1752 428.304C68.8752 429.437 70.6886 430.372 72.6152 431.109C74.5986 431.789 76.6386 432.129 78.7352 432.129C80.3786 432.129 81.6536 431.874 82.5602 431.364C83.5236 430.797 84.0052 429.976 84.0052 428.899C84.0052 427.822 83.4102 427.001 82.2202 426.434C81.0869 425.867 79.4152 425.301 77.2052 424.734L71.5952 423.374C69.1019 422.694 66.8636 421.872 64.8802 420.909C62.9536 419.946 61.4236 418.699 60.2902 417.169C59.2136 415.582 58.6752 413.571 58.6752 411.134C58.6752 406.997 60.2052 403.796 63.2652 401.529C66.3252 399.262 70.4052 398.129 75.5052 398.129C80.0386 398.129 83.8636 398.951 86.9802 400.594C90.1536 402.181 92.4769 403.881 93.9502 405.694L88.5102 413.854C86.4702 411.757 84.2319 410.142 81.7952 409.009C79.3586 407.876 76.9219 407.309 74.4852 407.309C73.0119 407.309 71.8502 407.592 71.0002 408.159C70.1502 408.669 69.7252 409.434 69.7252 410.454C69.7252 411.531 70.2352 412.381 71.2552 413.004C72.3319 413.627 74.2586 414.307 77.0352 415.044L81.7102 416.319C86.3002 417.566 89.6436 419.152 91.7402 421.079C93.8369 423.006 94.8852 425.556 94.8852 428.729C94.8852 431.392 94.1769 433.687 92.7602 435.614C91.3436 437.484 89.4169 438.929 86.9802 439.949C84.5436 440.912 81.6819 441.394 78.3952 441.394ZM113.615 421.759H102.82C102.82 418.189 102.593 414.364 102.14 410.284C101.743 406.147 101.318 401.841 100.865 397.364C100.468 392.887 100.27 388.297 100.27 383.594H116.165C116.165 388.241 115.938 392.831 115.485 397.364C115.088 401.841 114.663 406.119 114.21 410.199C113.813 414.279 113.615 418.132 113.615 421.759ZM114.635 440.544H101.8V427.369H114.635V440.544Z" fill="#0048C8"/>
<path d="M31.28 336.224C25.33 336.224 20.23 334.921 15.98 332.314C11.7867 329.707 8.55667 326.194 6.29 321.774C4.08 317.354 2.975 312.424 2.975 306.984C2.975 301.487 4.08 296.557 6.29 292.194C8.55667 287.774 11.7867 284.261 15.98 281.654C20.23 279.047 25.33 277.744 31.28 277.744C35.4167 277.744 39.1283 278.396 42.415 279.699C45.7017 281.002 48.535 282.872 50.915 285.309C53.3517 287.746 55.3067 290.636 56.78 293.979L46.41 302.309C45.8433 299.929 44.9083 297.776 43.605 295.849C42.3583 293.866 40.6867 292.307 38.59 291.174C36.55 289.984 34.085 289.389 31.195 289.389C27.9083 289.389 25.1317 290.154 22.865 291.684C20.5983 293.157 18.8983 295.226 17.765 297.889C16.6317 300.496 16.065 303.527 16.065 306.984C16.065 310.384 16.6317 313.416 17.765 316.079C18.8983 318.742 20.5983 320.839 22.865 322.369C25.1317 323.842 27.9083 324.579 31.195 324.579C34.085 324.579 36.55 324.012 38.59 322.879C40.6867 321.689 42.3583 320.131 43.605 318.204C44.9083 316.221 45.8433 314.039 46.41 311.659L56.78 319.989C55.3067 323.332 53.3517 326.222 50.915 328.659C48.535 331.096 45.7017 332.966 42.415 334.269C39.1283 335.572 35.4167 336.224 31.28 336.224ZM101.948 335.544H89.7925V310.724C89.7925 308.174 89.3392 306.162 88.4325 304.689C87.5825 303.216 85.7409 302.479 82.9075 302.479C80.9809 302.479 79.4509 302.847 78.3175 303.584C77.2409 304.321 76.4475 305.426 75.9375 306.899C75.4842 308.372 75.2575 310.242 75.2575 312.509L74.9175 308.174C75.2009 305.624 75.8525 303.187 76.8725 300.864C77.8925 298.541 79.3942 296.671 81.3775 295.254C83.4175 293.781 86.0242 293.044 89.1975 293.044C93.1642 293.044 96.2809 294.206 98.5475 296.529C100.814 298.852 101.948 302.167 101.948 306.474V335.544ZM75.2575 335.544H63.1025V278.594H75.2575V335.544ZM128.785 336.394C124.592 336.394 120.908 335.487 117.735 333.674C114.618 331.804 112.21 329.226 110.51 325.939C108.81 322.652 107.96 318.912 107.96 314.719C107.96 310.469 108.81 306.729 110.51 303.499C112.21 300.212 114.618 297.662 117.735 295.849C120.908 293.979 124.592 293.044 128.785 293.044C133.092 293.044 136.832 293.979 140.005 295.849C143.235 297.662 145.7 300.212 147.4 303.499C149.157 306.729 150.035 310.469 150.035 314.719C150.035 318.912 149.157 322.652 147.4 325.939C145.7 329.226 143.235 331.804 140.005 333.674C136.832 335.487 133.092 336.394 128.785 336.394ZM128.955 326.534C130.712 326.534 132.242 326.137 133.545 325.344C134.848 324.551 135.868 323.304 136.605 321.604C137.342 319.847 137.71 317.552 137.71 314.719C137.71 311.886 137.342 309.619 136.605 307.919C135.868 306.162 134.848 304.887 133.545 304.094C132.242 303.301 130.712 302.904 128.955 302.904C127.255 302.904 125.753 303.301 124.45 304.094C123.147 304.887 122.127 306.162 121.39 307.919C120.653 309.619 120.285 311.886 120.285 314.719C120.285 317.552 120.653 319.847 121.39 321.604C122.127 323.304 123.147 324.551 124.45 325.344C125.753 326.137 127.255 326.534 128.955 326.534ZM176.265 336.394C172.072 336.394 168.389 335.487 165.215 333.674C162.099 331.804 159.69 329.226 157.99 325.939C156.29 322.652 155.44 318.912 155.44 314.719C155.44 310.469 156.29 306.729 157.99 303.499C159.69 300.212 162.099 297.662 165.215 295.849C168.389 293.979 172.072 293.044 176.265 293.044C180.572 293.044 184.312 293.979 187.485 295.849C190.715 297.662 193.18 300.212 194.88 303.499C196.637 306.729 197.515 310.469 197.515 314.719C197.515 318.912 196.637 322.652 194.88 325.939C193.18 329.226 190.715 331.804 187.485 333.674C184.312 335.487 180.572 336.394 176.265 336.394ZM176.435 326.534C178.192 326.534 179.722 326.137 181.025 325.344C182.329 324.551 183.349 323.304 184.085 321.604C184.822 319.847 185.19 317.552 185.19 314.719C185.19 311.886 184.822 309.619 184.085 307.919C183.349 306.162 182.329 304.887 181.025 304.094C179.722 303.301 178.192 302.904 176.435 302.904C174.735 302.904 173.234 303.301 171.93 304.094C170.627 304.887 169.607 306.162 168.87 307.919C168.134 309.619 167.765 311.886 167.765 314.719C167.765 317.552 168.134 319.847 168.87 321.604C169.607 323.304 170.627 324.551 171.93 325.344C173.234 326.137 174.735 326.534 176.435 326.534ZM221.916 336.394C218.856 336.394 215.937 336.054 213.161 335.374C210.384 334.637 207.947 333.646 205.851 332.399C203.754 331.096 202.082 329.622 200.836 327.979L206.446 319.734C207.636 320.924 209.052 322.114 210.696 323.304C212.396 324.437 214.209 325.372 216.136 326.109C218.119 326.789 220.159 327.129 222.256 327.129C223.899 327.129 225.174 326.874 226.081 326.364C227.044 325.797 227.526 324.976 227.526 323.899C227.526 322.822 226.931 322.001 225.741 321.434C224.607 320.867 222.936 320.301 220.726 319.734L215.116 318.374C212.622 317.694 210.384 316.872 208.401 315.909C206.474 314.946 204.944 313.699 203.811 312.169C202.734 310.582 202.196 308.571 202.196 306.134C202.196 301.997 203.726 298.796 206.786 296.529C209.846 294.262 213.926 293.129 219.026 293.129C223.559 293.129 227.384 293.951 230.501 295.594C233.674 297.181 235.997 298.881 237.471 300.694L232.031 308.854C229.991 306.757 227.752 305.142 225.316 304.009C222.879 302.876 220.442 302.309 218.006 302.309C216.532 302.309 215.371 302.592 214.521 303.159C213.671 303.669 213.246 304.434 213.246 305.454C213.246 306.531 213.756 307.381 214.776 308.004C215.852 308.627 217.779 309.307 220.556 310.044L225.231 311.319C229.821 312.566 233.164 314.152 235.261 316.079C237.357 318.006 238.406 320.556 238.406 323.729C238.406 326.392 237.697 328.687 236.281 330.614C234.864 332.484 232.937 333.929 230.501 334.949C228.064 335.912 225.202 336.394 221.916 336.394ZM263.359 336.394C258.939 336.394 255.114 335.487 251.884 333.674C248.71 331.861 246.274 329.311 244.574 326.024C242.874 322.737 242.024 318.969 242.024 314.719C242.024 310.412 242.874 306.644 244.574 303.414C246.274 300.127 248.654 297.577 251.714 295.764C254.774 293.951 258.315 293.044 262.339 293.044C266.759 293.044 270.442 293.922 273.389 295.679C276.335 297.436 278.545 299.816 280.019 302.819C281.492 305.822 282.229 309.137 282.229 312.764C282.229 313.671 282.172 314.634 282.059 315.654C282.002 316.617 281.917 317.354 281.804 317.864H250.694V310.894H273.304L271.349 312.509C271.349 309.222 270.612 306.729 269.139 305.029C267.665 303.272 265.427 302.394 262.424 302.394C259.59 302.394 257.352 303.272 255.709 305.029C254.122 306.729 253.329 309.307 253.329 312.764V315.909C253.329 318.346 253.754 320.357 254.604 321.944C255.454 323.474 256.644 324.636 258.174 325.429C259.76 326.166 261.545 326.534 263.529 326.534C265.512 326.534 267.184 326.279 268.544 325.769C269.904 325.259 271.037 324.551 271.944 323.644C272.85 322.681 273.559 321.604 274.069 320.414L281.464 327.809C279.934 330.019 277.695 332.002 274.749 333.759C271.859 335.516 268.062 336.394 263.359 336.394Z" fill="#F15010"/>
<path fill-rule="evenodd" clip-rule="evenodd" d="M607.217 851.781C679.646 851.781 743.206 797.904 707.511 724.725C671.815 651.547 804.447 653.911 843.408 603.335C890.922 541.655 877.162 279.835 572.141 439.453C523.281 465.022 397.796 413.148 356.172 438.887C307.176 469.184 238.242 531.223 307.176 594.772C341.132 626.075 219.393 707.324 272.712 780.102C324.738 851.115 361.208 783.419 440.416 797.904C519.625 812.388 553.425 851.781 607.217 851.781Z" fill="#0030C2"/>
<path d="M523.15 724.471C523.15 724.471 539.827 716.626 546.053 711.168C552.279 705.71 560.02 692.151 560.02 692.151C560.02 692.151 645.043 753.554 700.481 744.795C713.254 742.777 738.143 734.287 739.73 719.327C744.064 678.479 684.1 668.04 697.198 647.325C705.194 634.68 730.031 653.499 730.031 653.499L833.049 704.171C833.049 704.171 797.459 791.901 711.091 795.416C604.847 799.741 523.15 724.471 523.15 724.471Z" fill="white"/>
<path fill-rule="evenodd" clip-rule="evenodd" d="M441.473 380.901C440.506 380.521 435.313 374.163 428.721 373.006C425.725 372.48 428.444 376.294 425.147 376.329C415.328 376.431 399.372 374.586 396.416 376.329C394.219 377.62 399.057 382.129 396.416 382.337C371.494 384.29 333.474 409.173 325.225 421.245C322.6 425.087 343.832 418.569 340.449 420.468C336.652 422.6 332.441 436.559 329.924 447.339C328.181 454.763 327.083 464.317 326.696 474.711C326.373 483.684 326.502 485.169 327.793 490.075C329.278 495.562 330.44 497.176 332.441 496.401C333.151 496.143 333.474 495.175 333.474 493.367C333.474 491.947 334.249 487.686 335.217 483.878L336.896 477.035L337.606 479.875C338.51 483.167 343.803 493.367 348.58 500.791C348.838 501.185 349.946 500.684 350.946 498.268C351.857 496.066 351.487 492.549 353.034 488.779C356.559 480.192 363.48 469.028 371.494 460.091C383.338 446.884 387.267 431.598 398.369 419.328C419.088 396.43 445.092 382.322 441.473 380.901Z" fill="white"/>
<path fill-rule="evenodd" clip-rule="evenodd" d="M340.745 423.584C337.421 426.257 332.487 447.935 332.403 448.297C330.66 455.721 328.98 481.502 330.697 486.382C332.414 491.263 337.223 473.669 337.223 473.669C337.223 473.669 344.492 492.543 350.915 497.718C351.189 497.939 343.281 474.366 340.745 460.605C337.397 442.44 342.636 422.063 340.745 423.584Z" fill="#E7EAEE"/>
<path fill-rule="evenodd" clip-rule="evenodd" d="M464.624 803.247C470.821 801.891 481.278 797.17 485.281 795.556C489.285 793.942 501.485 776.715 505.874 757.284C509.038 742.952 510.651 722.553 508.844 719.131C508.577 718.646 507.6 709.37 510.2 712.399C515.978 719.131 522.836 729.701 544.478 710.761C550.372 705.602 558.185 698.945 556.127 693.059C550.372 676.591 525.423 643.431 521.619 640.919C517.072 637.916 494.086 640.468 459.879 630.371C421.086 618.921 404.932 585.205 389.751 589.594C377.474 593.143 348.059 614.956 340.677 628.769C305.826 693.98 348.059 739.674 357.678 752.798L367.016 756.832L367.339 765.159L367.791 770.388C368.63 780.394 368.953 781.298 373.472 784.655C384.769 793.241 407.04 801.246 427.182 804.086C436.542 805.377 456.877 804.925 464.624 803.247Z" fill="white"/>
<path fill-rule="evenodd" clip-rule="evenodd" d="M370.69 762.112L371.142 767.341C371.981 777.347 372.304 778.25 376.823 781.607C383.488 786.672 393.972 791.535 405.584 795.255C413.656 797.84 422.274 799.874 430.533 801.038C439.893 802.329 460.228 801.878 467.975 800.199C471.804 799.37 440.308 774.625 421.753 781.607C407.504 786.969 373.92 746.07 387.575 735.385C402.893 723.398 374.823 676.122 373.92 665.858C373.016 655.594 369.457 653.142 369.353 653.502C369.249 653.862 369.249 655.09 369.528 658.049C370.733 670.803 370.69 762.112 370.69 762.112Z" fill="#E7EAEE"/>
<path fill-rule="evenodd" clip-rule="evenodd" d="M367.328 662.927C368.683 662.664 369.995 663.548 370.259 664.904C375.131 689.935 395.74 706.88 432.591 715.742C469.662 724.656 494.912 724.175 508.217 714.66C509.34 713.857 508.503 720.735 507.68 721.263C499.003 726.827 469.499 735.13 434.292 727.626C389.275 718.031 368.138 680.178 365.351 665.859C365.087 664.504 365.972 663.191 367.328 662.927Z" fill="#FFB61D"/>
<path fill-rule="evenodd" clip-rule="evenodd" d="M348.554 617.767C349.752 617.081 394.464 668.324 455.824 679.923C517.183 691.523 532.04 684.146 534.428 668.324C534.634 666.959 535.907 666.019 537.273 666.225C538.638 666.431 539.578 667.705 539.372 669.07C536.345 689.122 507.953 693.891 454.982 684.852C402.678 675.927 366.817 654.721 347.625 621.178C346.94 619.98 347.355 618.452 348.554 617.767Z" fill="#FFB61D"/>
<path fill-rule="evenodd" clip-rule="evenodd" d="M606.092 614.924C604.414 614.343 602.606 613.052 601.444 611.567L599.508 609.179L606.351 602.401C616.873 592.072 624.943 581.485 631.914 568.897C634.238 564.7 640.113 550.692 640.113 549.336C640.113 548.884 640.823 547.077 641.662 545.205C642.953 542.493 643.922 541.461 646.698 539.911C649.99 537.975 653.734 537.329 655.348 538.426C658.447 540.492 658.447 547.012 655.348 558.245C651.927 570.575 647.343 579.419 637.854 592.136C636.369 594.073 633.593 597.882 631.592 600.529C626.234 607.63 622.748 611.051 618.035 613.698C613.387 616.28 610.676 616.603 606.092 614.924ZM652.441 609.115L657.089 611.18C658.053 611.625 668.686 616.734 681.458 622.871C702.048 632.765 728.199 645.33 728.358 645.33C728.616 645.33 729.828 642.529 730.101 639.262C730.747 632.225 733.135 622.671 735.911 616.022C737.202 613.052 738.235 609.341 738.235 609.018C738.235 608.871 737.186 608.448 735.468 607.755C733.422 606.93 730.43 605.723 727.132 604.144C710.864 596.333 679.038 580.388 675.1 577.999C671.227 575.74 670.452 575.546 670.452 577.031C670.452 578.967 666.514 587.941 663.48 592.782C661.866 595.429 658.703 600.206 656.444 603.369L652.441 609.115ZM727.261 633.71C729.112 634.783 725.905 636.357 725.13 636.615C720.569 637.003 715.199 636.145 710.799 633.581C708.499 631.95 690.385 621.887 678.369 615.211C672.875 612.159 668.656 609.815 667.806 609.308C665.094 607.695 662.512 605.952 662.06 605.435C660.704 603.692 661.996 602.917 665.804 603.24C668.094 603.434 723.262 631.393 727.261 633.71ZM464.846 802.716C469.826 801.626 477.556 798.364 482.478 796.287C483.682 795.779 484.717 795.342 485.504 795.025C489.507 793.41 501.707 776.184 506.097 756.753C509.26 742.421 510.874 722.022 509.066 718.6C507.977 716.619 514.451 723.266 519.272 728.216L519.273 728.217L519.275 728.219L519.277 728.221C520.737 729.72 522.046 731.063 522.946 731.963C551.092 759.916 592.988 782.381 636.498 792.903C658.189 798.197 673.617 800.069 694.34 800.069C729.135 800.069 756.571 793.226 781.489 778.185C782.673 777.47 783.782 776.814 784.839 776.188C793.525 771.045 798.7 767.982 812.863 752.04C828.749 734.158 842.881 692.649 847.594 678.318C849.659 671.863 854.695 646.186 854.695 639.779C854.695 632.193 852.048 628.611 848.433 624.931C842.042 618.669 833.391 616.41 826.226 619.121L822.869 620.412L821.836 616.991C820.351 611.826 817.253 607.695 812.475 604.596C805.374 599.884 804.342 599.561 797.951 599.561C792.98 599.561 791.624 599.819 788.461 601.304L784.781 602.982L784.007 600.658C782.522 595.881 777.542 589.222 773.678 587.295C770.251 585.587 764.319 585.43 760.186 586.198C751.148 587.876 744.693 592.072 742.046 597.947C741.271 599.754 740.303 601.175 739.916 601.175C739.593 601.175 726.875 597.623 711.705 590.909C709.146 589.773 706.742 588.708 704.485 587.707C677.243 575.632 671.338 573.015 671.874 569.736C672.326 566.96 672.197 565.411 671.423 563.023C670.067 559.02 668.518 557.923 664.128 557.923C660.642 557.923 660.642 557.923 661.029 556.18C663.095 546.303 663.03 540.622 660.836 537.007C659.351 534.618 657.608 533.65 653.605 533.069C651.281 532.746 650.184 532.94 647.602 534.36C645.859 535.264 644.374 535.909 644.245 535.78C644.116 535.651 644.568 532.101 645.278 527.905C650.571 496.854 646.482 470.1 632.99 441.696C632.861 441.426 632.713 441.107 632.543 440.742L632.539 440.735C628.438 431.929 611.945 396.52 564.777 378.653C562.643 377.844 560.623 377.063 558.681 376.311L558.681 376.311C542.614 370.092 531.933 365.957 506.161 366C477.276 366.048 467.493 370.132 448.449 378.847C445.802 380.073 443.478 380.783 443.285 380.525C443.091 380.202 441.865 379.428 440.638 378.782C439.411 378.137 436.765 376.523 434.828 375.232C429.276 371.488 425.855 369.938 424.112 370.326C422.111 370.842 422.111 372.52 424.112 373.295C424.951 373.618 425.919 374.715 426.307 375.813C427.146 378.137 428.114 378.395 428.695 376.458C428.953 375.748 429.341 375.232 429.535 375.361C429.608 375.398 429.854 375.513 430.229 375.688L430.229 375.688L430.229 375.689C431.173 376.13 432.935 376.955 434.828 377.878C437.475 379.17 440.38 380.525 441.154 380.848C442.575 381.364 442.123 381.752 435.99 385.367C412.04 399.44 392.544 421.324 381.635 446.242C379.956 449.987 378.471 452.311 376.922 453.602C372.984 456.894 365.238 466.254 363.43 469.934C362.462 471.935 360.396 475.034 358.782 476.841C357.233 478.649 355.554 480.973 354.973 481.941C354.457 482.974 353.94 483.684 353.747 483.555C353.618 483.362 353.811 480.198 354.263 476.519C355.232 467.933 355.232 465.673 354.457 465.48C353.295 465.157 351.616 469.676 350.906 475.292C350.39 478.714 350.261 483.878 350.584 489.172L350.971 497.564L346.387 490.14C344.809 487.653 343.254 485.167 342.152 483.403L342.151 483.403L342.15 483.4C341.45 482.281 340.932 481.453 340.707 481.102C339.028 478.649 338.06 474.969 338.77 473.743C339.157 473.033 339.093 472.71 338.447 472.71C337.092 472.71 334.445 477.035 332.702 482.006C331.863 484.33 331.023 486.267 330.765 486.267C329.797 486.267 330.249 463.156 331.282 455.732C333.412 441.078 339.028 423.003 341.546 423.003C342.062 423.003 342.514 422.744 342.514 422.357C342.514 421.195 340.836 421.647 339.48 423.132C336.446 426.424 332.444 436.559 329.926 447.34C328.183 454.764 327.086 464.318 326.698 474.711C326.375 483.684 326.505 485.169 327.796 490.075C329.28 495.562 330.442 497.176 332.444 496.402C333.154 496.143 333.476 495.175 333.476 493.368C333.476 491.947 334.251 487.687 335.219 483.878L336.898 477.035L337.608 479.876C338.512 483.168 343.805 493.368 348.582 500.791C351.875 505.827 351.939 506.15 353.037 514.025C353.618 518.48 355.425 529.314 359.621 545.98C363.329 560.706 384.171 575.313 389.376 578.961L389.376 578.961L389.379 578.963C390.063 579.442 390.476 579.732 390.543 579.807C391.189 580.517 392.093 580.904 392.609 580.711C393.19 580.517 393.513 580.775 393.513 581.485C393.513 582.131 393.965 582.97 394.481 583.357C395.127 583.809 395.578 585.552 395.708 588.586C396.03 594.655 400.549 606.275 404.035 610.083C406.295 612.536 411.007 613.569 416.236 612.665C419.658 612.149 420.626 611.762 420.303 610.987C420.109 610.471 421.336 611.116 423.014 612.407C442.639 627.384 462.522 636.357 484.858 640.23C493.509 641.715 507.84 642.554 515.651 641.973C520.66 641.646 522.036 641.556 522.292 642.048C522.389 642.234 522.324 642.505 522.236 642.877C521.784 644.685 522.365 645.782 531.854 661.856C539.407 674.574 540.053 675.413 548.445 683.999C566.262 702.397 585.693 716.664 607.707 727.703C628.429 738.032 661.513 746.617 691.757 749.329C722.002 752.04 743.724 724.281 743.66 717.18C743.531 707.432 742.175 701.041 738.883 694.844C735.655 688.841 733.525 686.775 723.841 680.319C713.061 673.154 706.411 667.279 702.022 661.017C699.246 657.079 698.213 652.625 698.213 650.237C698.213 648.687 700.214 645.201 703.184 644.491C705.895 643.781 706.411 643.846 709.446 645.33C711.253 646.17 715.966 648.364 719.839 650.237C723.777 652.044 727.586 653.852 728.36 654.239C730.644 654.873 731.61 659.344 732.133 661.767C732.25 662.308 732.345 662.747 732.427 663.018C733.331 666.375 737.608 670.71 740.367 672.185C745.213 674.777 757.153 675.123 760.445 671.573C761.284 670.669 764.067 669.558 764.64 669.894C765.213 670.231 767.287 673.025 767.287 675.284C767.351 679.157 769.353 682.708 773.613 686.258C781.683 692.972 787.945 694.586 794.271 691.616C797.563 690.067 800.262 689.462 800.262 689.462C800.262 689.462 802.953 692.896 803.115 694.069C804.383 703.242 817.962 707.087 821.577 707.474C822.406 707.557 824.018 707.202 825.656 706.842C827.846 706.361 830.081 705.87 830.551 706.4C831.473 707.44 815.122 734.481 812.863 737.902C791.366 770.18 749.534 789.934 698.342 792C665.096 793.355 624.233 784.059 588.792 767.146C566.133 756.236 546.057 742.873 524.56 724.152C520.815 720.924 516.49 717.245 514.941 715.954C513.392 714.727 509.712 710.531 506.872 706.658C502.094 700.202 499.383 697.878 499.383 700.073C499.383 701.041 502.482 706.98 506.032 712.855C507.453 715.179 508.356 716.793 508.034 716.535C507.711 716.276 506.678 720.924 505.71 726.863C502.546 745.907 497.317 764.693 492.024 776.377C489.119 782.704 483.549 787.428 481.87 788.719C475.673 793.432 466.395 795.55 453.549 796.841C437.281 798.455 413.331 794.84 395.062 787.997C390.22 786.19 377.761 780.961 376.922 780.38C376.872 780.329 376.586 778.472 376.187 775.881C376.074 775.15 375.952 774.36 375.825 773.537C373.501 757.592 370.273 696.2 370.273 667.796C370.273 656.047 370.144 653.464 369.369 653.464C367.755 653.464 367.11 655.014 366.4 660.565C364.786 673.218 365.108 739.258 366.851 753.137L367.239 756.301L365.044 755.074C361.687 753.137 348.905 740.162 344.451 734.158C340.68 729.026 338.439 722.452 336.762 717.534L336.762 717.534C336.372 716.39 336.012 715.336 335.671 714.41C326.311 688.459 329.603 659.339 342.514 633.129C353.489 610.793 366.981 598.399 386.734 592.395C389.962 591.427 392.803 590.394 393.125 590.136C394.352 588.974 386.476 589.555 382.151 590.91C368.078 595.236 353.359 607.049 343.353 622.155C329.28 643.329 322.954 674.574 327.408 701.235C328.441 707.561 332.637 721.247 333.799 722.216C333.902 722.318 334.433 723.432 335.236 725.117C337.456 729.775 341.757 738.796 344.838 742.873C348.582 747.973 359.88 759.076 364.592 762.498L367.562 764.628L368.013 769.857C368.853 779.863 369.175 780.767 373.694 784.124C384.991 792.71 407.263 800.715 427.404 803.555C436.765 804.846 457.1 804.394 464.846 802.716ZM683.041 742.098C645.535 738.805 600.217 720.922 567.423 693.293C553.608 681.608 535.662 658.886 528.561 646.298C527.076 643.716 525.979 642.489 524.687 642.166C523.332 641.779 524.494 641.392 530.045 640.488C553.479 636.485 576.267 626.738 594.665 612.858L597.376 610.857L598.151 612.729C599.894 616.925 606.608 621.186 611.579 621.186C613.58 621.186 620.294 618.152 624.361 615.376L627.136 613.504L629.396 615.763C631.462 617.829 631.849 617.958 635.722 617.958C640.177 617.958 645.535 615.957 648.504 613.117L650.118 611.632L654.701 614.666C657.155 616.409 663.997 620.218 669.872 623.252C678.651 627.771 687.947 632.999 696.791 638.422L698.212 639.326L696.856 641.133C695.436 643.07 692.79 646.75 692.79 652.366C692.79 658.692 699.368 670.059 711.962 677.865C721.855 683.998 738.881 696.061 738.236 713.693C738.158 715.823 735.783 721.117 732.619 725.894C730.554 728.928 724.808 733.447 719.579 736.094C710.671 740.548 694.984 743.131 683.041 742.098ZM338.834 452.31C340.577 452.698 341.739 453.279 341.481 453.537C340.642 454.376 336.188 453.989 335.155 452.956C333.541 451.406 333.928 450.309 336.188 449.857C337.35 449.663 339.093 448.695 340.061 447.727C341.029 446.758 341.868 446.307 341.868 446.629C341.868 447.469 338.641 450.438 337.027 451.084C335.994 451.536 336.317 451.729 338.834 452.31ZM364.526 453.343C366.398 452.31 366.011 451.6 363.816 451.922C361.621 452.245 361.492 451.987 362.912 449.792C363.493 448.953 363.816 447.726 363.687 447.081C363.493 446.242 363.042 446.629 362.009 448.695C361.234 450.179 360.137 451.406 359.62 451.406C358.006 451.406 357.877 452.697 359.426 453.278C361.428 454.117 362.977 454.117 364.526 453.343ZM342.19 418.096C340.641 418.354 335.799 420.291 331.539 422.421C327.214 424.487 323.534 426.23 323.276 426.165C316.691 425.455 325.858 414.481 342.513 403.248C358.458 392.468 369.239 386.787 379.245 383.882C385.507 382.074 392.543 381.816 394.545 383.301C395.642 384.14 395.255 384.204 390.478 384.269C380.149 384.269 368.206 389.563 348.775 402.538C338.704 409.252 327.02 418.871 327.02 420.42C327.02 420.743 328.892 420.097 331.216 419.064C336.187 416.805 341.287 415.643 343.546 416.159C345.935 416.805 345.418 417.644 342.19 418.096ZM367.174 423.648C373.242 422.421 373.501 422.357 373.501 421.711C373.501 421.388 371.177 421.065 368.272 420.936L363.043 420.743L367.884 415.255C370.531 412.221 373.63 409.187 374.727 408.477C377.116 406.928 377.245 405.83 375.308 405.185L373.823 404.733L375.437 404.152C376.341 403.829 378.019 403.7 379.181 403.894C380.924 404.152 381.312 404.023 381.118 403.119C380.924 402.215 380.214 402.022 377.051 402.086C367.82 402.215 363.882 404.668 371.112 405.83C373.113 406.153 374.792 406.67 374.792 406.992C374.792 407.251 374.469 407.509 374.082 407.509C372.855 407.509 362.462 418.031 361.171 420.614C359.169 424.422 360.267 425.003 367.174 423.648ZM409.78 398.6C407.908 398.729 407.456 399.052 407.585 399.956L407.605 400.087C407.677 400.565 407.719 400.839 407.612 400.922C407.467 401.035 407.052 400.799 406.076 400.246L405.906 400.15C404.68 399.504 404.551 399.181 405.261 398.665C405.713 398.277 406.939 397.696 407.908 397.503L409.715 397.051L408.36 395.631C407.649 394.791 407.262 394.017 407.456 393.759C407.972 393.242 414.299 393.952 415.202 394.662C415.59 394.985 416.171 394.921 416.558 394.533C417.462 393.629 418.688 394.34 418.688 395.76C418.688 396.534 418.495 396.599 417.914 396.018C417.397 395.502 416.945 395.502 416.364 395.953C415.848 396.405 415.461 396.405 415.138 395.889C414.944 395.566 413.718 395.243 412.427 395.243C411.235 395.243 410.672 395.243 410.557 395.47C410.454 395.674 410.712 396.06 411.2 396.793C412.23 398.402 412.169 398.407 409.802 398.598L409.78 398.6ZM399.967 381.428C399.967 380.589 399.193 379.104 398.224 378.136L396.417 376.328L406.1 376.716C411.458 376.974 417.526 377.555 419.657 378.136C421.787 378.652 424.24 379.04 425.144 379.04C426.499 379.04 426.241 378.782 423.724 377.426C419.334 375.166 413.718 374.069 402.937 373.294C390.026 372.391 383.506 373.617 384.732 376.845C384.926 377.49 385.959 377.813 387.508 377.813C390.671 377.813 395.836 379.685 397.579 381.428C399.451 383.3 399.967 383.3 399.967 381.428ZM368.464 552.37C373.693 559.084 380.6 566.701 383.828 569.284C385.765 570.833 387.443 572.124 387.572 572.124C387.637 572.124 386.216 569.154 384.409 565.539C377.114 551.014 372.854 536.554 370.852 519.899C370.4 516.219 369.69 513.121 368.916 511.829C367.366 509.247 367.366 505.89 368.98 502.727C369.819 501.049 370.271 498.918 370.271 496.594V493.044L367.173 496.272C364.139 499.435 361.234 500.726 361.234 498.789C361.234 497.369 366.011 490.526 368.528 488.396C370.53 486.718 370.788 486.137 371.433 481.101C371.885 478.067 372.918 472.709 373.757 469.159C374.661 465.608 375.178 462.574 375.048 462.445C374.597 461.993 359.426 479.416 357.36 484.975C356.907 486.195 355.682 488.331 354.714 489.623L353.035 491.778C353.035 491.778 353.557 494.795 354.133 498.588C354.715 502.419 354.988 505.053 355.231 507.399C355.556 510.538 355.828 513.161 356.715 517.446C357.748 522.739 358.781 527.323 359.039 527.646C359.232 528.033 360.072 531.002 360.911 534.295C362.718 541.589 365.753 548.82 368.464 552.37ZM630.43 613.439L629.074 612.083C629.074 612.083 651.575 583.496 655.606 572.963C658.683 564.925 660.494 562.645 662.937 562.645C664.303 562.645 665.419 562.957 665.935 563.732C666.839 565.087 667.71 566.766 666.548 572.511C664.611 581.807 661.642 587.94 652.733 601.174C650.667 604.208 648.021 607.565 646.859 608.727C644.147 611.244 638.047 613.826 634.497 614.407C632.237 614.73 631.592 614.601 630.43 613.439Z" fill="#00160A"/>
<path d="M809.181 676.591C817.212 654.709 815.997 650.047 814.604 649.591C814.604 649.591 811.537 651.334 810.181 655.013C807.663 661.921 799.046 679.996 795.818 683.224C792.009 687.033 792.009 687.033 788.136 687.033C784.263 687.033 773.092 681.2 771.571 675.45C769.137 666.25 779.615 634.291 779.873 632.484L778.13 631.257C776.968 632.355 761.853 678.189 741.979 666.246C739.703 664.879 734.878 658.435 734.491 655.013C732.34 645.072 742.209 610.309 743.888 603.169C745.39 596.777 753.212 590.846 762.83 590.846C777.613 590.846 775.628 603.768 782.249 608.322C785.184 610.339 790.006 606.681 791.493 606.403C799.82 604.854 803.011 606.658 809.116 611.503C813.829 615.243 817.316 622.645 821.153 625.254C823.285 626.702 825.547 624.722 826.288 624.35C829.325 622.825 835.842 623.962 837.65 625.254C840.3 626.409 846.793 632.651 847.819 636.281C852.468 652.735 837.787 689.213 832.244 696.056C823.07 707.383 801.15 698.474 809.181 676.591Z" fill="white"/>
<path fill-rule="evenodd" clip-rule="evenodd" d="M438.054 616.633C455.743 627.801 473.981 635.095 494.768 637.097C511.165 638.646 533.273 636.516 549.154 631.351C562.517 627.026 580.592 615.044 592.664 604.909C616.097 585.284 630.881 554.63 637.336 522.095C638.24 517.511 639.618 505.99 639.554 494.564C639.554 481.265 633.701 444.925 615.968 423.971C579.395 380.754 519.275 361.285 468.749 377.92C450.523 383.92 431.117 394.792 416.463 408.994C398 427.005 384.379 451.536 378.956 476.583C373.275 503.051 380.665 534.683 393.511 560.634C403.776 581.292 420.689 605.594 438.054 616.633ZM610.417 538.621C598.28 575.095 566.648 602.337 526.882 610.6C520.814 611.826 516.618 612.278 508.097 612.407C502.093 612.601 496.089 612.537 494.863 612.407C467.04 609.051 445.866 598.786 426.37 579.291C417.849 570.705 414.234 566.057 408.94 556.89C400.612 542.365 396.158 527.518 394.803 509.636C390.155 448.373 433.987 397.31 495.702 392.016C519.91 389.951 546.765 397.374 567.165 411.835C574.718 417.193 588.403 430.749 592.664 437.076C594.407 439.593 611.32 464.318 614.29 478.52C618.099 496.983 616.614 520.094 610.417 538.621Z" fill="white"/>
<path fill-rule="evenodd" clip-rule="evenodd" d="M639.577 494.563C639.577 537.893 619.08 585.265 592.628 605.496C580.008 615.148 563.516 626.835 549.153 631.351C528.106 637.968 494.768 637.096 494.768 637.096C494.768 637.096 528.779 632.55 541.384 627.477C577.527 612.932 597.257 590.603 609.44 569.18C633.489 526.891 639.577 493.511 639.577 494.563Z" fill="#E7EAEE"/>
<path fill-rule="evenodd" clip-rule="evenodd" d="M495.509 604.66C478.272 602.465 461.165 596.333 447.35 587.23C439.152 581.872 426.757 569.284 420.754 560.311C412.168 547.4 406.487 533.585 403.711 518.737C401.71 507.957 401.775 491.366 403.776 481.747C405.842 471.935 408.488 464.446 413.201 454.957C418.688 443.982 424.498 435.913 433.213 427.198C448.061 412.35 465.297 402.925 485.825 398.406C492.475 396.986 516.554 395.824 517.393 396.922C517.586 397.245 518.878 398.084 520.233 398.794C521.589 399.568 525.204 402.28 528.173 404.927C532.628 408.8 534.629 411.253 538.502 417.321C541.149 421.453 543.279 425.197 543.279 425.52C543.279 426.23 545.345 427.521 546.507 427.521C548.121 427.521 549.218 422.679 549.541 414.158C549.735 409.445 550.122 405.572 550.38 405.572C551.284 405.572 561.226 411.059 565.874 414.158C574.976 420.226 584.078 428.747 590.792 437.656C593.826 441.658 594.278 442.691 594.278 445.144C594.278 447.404 594.923 449.147 596.925 452.633C601.96 461.412 605.898 472.451 608.286 484.652C609.836 492.851 609.836 508.344 608.222 516.93C603.832 540.557 590.792 564.055 573.814 578.967C559.418 591.555 544.119 599.302 526.043 603.111C519.846 604.466 501.254 605.37 495.509 604.66ZM449.352 560.504C449.933 559.859 450.32 558.89 450.127 558.439C450.069 558.303 449.262 557.924 448.081 557.369L448.078 557.367L448.077 557.367C445.319 556.07 440.524 553.816 438.446 551.467C430.183 542.042 427.149 535.005 425.277 520.48C423.469 506.343 424.988 496.785 428.246 481.424C429.836 473.931 434.061 467.742 436.689 463.891C438.477 461.272 439.526 459.735 438.507 459.605C435.989 459.217 435.602 459.411 432.955 461.929C427.274 467.351 424.692 471.676 421.981 480.004C417.785 493.044 416.974 528.285 425.277 544.172C433.58 560.059 447.867 562.183 449.352 560.504ZM541.149 506.279C540.053 516.307 535.404 530.81 529.981 537.136C527.464 540.105 518.222 545.205 510.421 544.172C502.886 543.175 496.994 539.654 491.958 532.101C487.633 525.581 485.399 517.666 483.889 507.699C481.281 490.487 492.668 470.451 497.575 465.48C502.545 460.38 506.096 458.572 510.615 458.508C515.004 458.508 517.845 459.476 522.299 462.639C530.433 468.32 543.28 486.792 541.149 506.279ZM454.129 452.891C455.42 451.407 455.614 450.697 455.226 447.921C454.968 445.339 454.452 444.306 453.096 443.208C450.707 441.272 447.738 441.272 445.543 443.337C443.994 444.822 443.8 445.339 443.994 448.889C444.187 452.698 444.316 452.956 446.447 454.118C449.287 455.667 452.063 455.215 454.129 452.891ZM494.41 413.06C482.79 421.388 477.755 424.809 472.526 428.037C468.394 430.619 467.103 430.684 467.103 428.36C467.103 427.133 468.007 425.778 470.331 423.647L473.559 420.678L467.297 419.839C460.261 418.935 453.418 416.998 451.933 415.513C449.48 412.996 451.61 412.415 458.582 413.706C461.681 414.222 467.684 414.868 471.945 414.997L479.692 415.32L485.308 411.253C497.638 402.344 510.42 397.309 516.553 398.858C520.361 399.762 519.909 400.795 515.584 401.311C510.614 401.892 507.579 403.571 494.41 413.06Z" fill="white"/>
<path d="M511.002 535.328C511.002 535.005 511.389 534.683 511.906 534.683C512.422 534.683 513.068 535.005 513.261 535.328C513.455 535.715 513.068 535.974 512.358 535.974C511.583 535.974 511.002 535.715 511.002 535.328Z" fill="white"/>
<path d="M514.875 534.747C514.875 534.037 516.489 533.392 518.296 533.392C519.717 533.456 519.717 533.456 518.49 534.36C517.07 535.457 514.875 535.651 514.875 534.747Z" fill="white"/>
<path d="M504.868 533.069C504.674 532.553 504.416 531.649 504.222 531.132C504.029 530.487 504.352 530.164 505.191 530.164C505.901 530.164 506.482 530.551 506.482 531.068C506.482 531.584 506.676 532.423 506.869 533.004C507.127 533.715 506.934 534.037 506.224 534.037C505.643 534.037 504.997 533.585 504.868 533.069Z" fill="white"/>
<path d="M508.29 531.455C507.968 529.519 508.678 528.873 511.002 528.873C511.712 528.873 512.293 529.519 512.551 530.616C513.067 532.488 512.228 533.392 509.969 533.392C508.936 533.392 508.484 532.94 508.29 531.455Z" fill="white"/>
<path d="M501.705 531.778C500.479 530.81 500.479 530.81 501.834 530.81C502.673 530.81 503.254 531.197 503.254 531.778C503.254 532.94 503.254 532.94 501.705 531.778Z" fill="white"/>
<path d="M514.68 531.713C513.841 530.874 514.228 528.357 515.261 527.969C517.133 527.259 517.972 527.582 518.36 529.26C518.618 530.229 518.747 531.068 518.618 531.132C518.101 531.713 515.067 532.101 514.68 531.713Z" fill="white"/>
<path d="M520.426 530.358C520.233 530.164 520.039 529.325 520.039 528.55C520.039 527.453 520.556 527.001 522.105 526.678C523.46 526.42 524.3 526.549 524.687 527.065C525.333 528.098 525.333 529.389 524.752 529.712C523.59 530.358 520.878 530.745 520.426 530.358Z" fill="white"/>
<path d="M498.736 528.356C498.736 527.581 499.317 526.936 500.157 526.742C501.835 526.29 501.77 526.226 502.093 527.904C502.222 528.872 501.9 529.26 500.544 529.389C499.124 529.582 498.736 529.324 498.736 528.356Z" fill="white"/>
<path d="M503.641 528.42C502.737 527.452 503.318 525.645 504.545 525.645C505.384 525.645 505.836 526.096 505.836 526.871C505.836 528.098 504.351 529.131 503.641 528.42Z" fill="white"/>
<path d="M507.515 526.484C506.999 525.257 508.096 524.354 510.226 524.354C511.195 524.354 511.647 524.741 511.647 525.58C511.647 526.29 511.066 526.936 510.226 527.194C508.096 527.71 507.967 527.71 507.515 526.484Z" fill="white"/>
<path d="M526.172 526.29C526.365 525.967 526.688 525.645 526.882 525.645C527.075 525.645 527.011 525.967 526.817 526.29C526.624 526.677 526.301 526.936 526.107 526.936C525.914 526.936 525.978 526.677 526.172 526.29Z" fill="white"/>
<path d="M513.326 525.193C512.809 523.902 513.455 523.256 515.521 522.934C516.683 522.804 517.199 523.063 517.328 523.966C517.78 526.097 514.1 527.259 513.326 525.193Z" fill="white"/>
<path d="M497.831 524.095C497.25 521.965 497.379 521.771 499.057 521.771C499.961 521.771 500.671 522.03 500.671 522.352C500.671 522.675 500.865 523.385 501.059 523.902C501.252 524.547 500.865 524.935 499.768 525.128C498.541 525.387 498.089 525.128 497.831 524.095Z" fill="white"/>
<path d="M519.393 523.386C519.393 522.224 519.844 521.707 521.071 521.384C522.879 520.933 523.911 521.836 523.911 523.902C523.911 524.741 523.395 524.999 521.652 524.999C519.651 524.999 519.393 524.806 519.393 523.386Z" fill="white"/>
<path d="M495.896 523.385C495.702 522.869 495.831 522.417 496.154 522.417C496.541 522.417 496.799 522.869 496.799 523.385C496.799 523.902 496.67 524.354 496.541 524.354C496.412 524.354 496.154 523.902 495.896 523.385Z" fill="white"/>
<path d="M502.415 523.902C501.512 523.063 502.028 521.255 503.19 520.932C503.9 520.739 504.61 520.803 504.804 520.997C505.579 521.707 505.127 523.579 504.158 523.966C502.932 524.418 502.932 524.418 502.415 523.902Z" fill="white"/>
<path d="M525.46 523.45C524.75 521.578 525.525 520.157 527.333 519.964C528.688 519.77 529.076 520.028 529.076 521.061C529.076 523.191 528.365 524.353 527.074 524.353C526.364 524.353 525.654 523.966 525.46 523.45Z" fill="white"/>
<path d="M506.935 522.611C506.16 521.901 506.418 520.61 507.516 520.223C508.742 519.771 511.325 521.062 510.614 521.772C509.711 522.547 507.387 523.128 506.935 522.611Z" fill="white"/>
<path d="M512.551 520.997C511.97 520.093 514.036 518.544 515.714 518.544C516.489 518.544 516.812 518.931 516.683 519.641C516.425 520.932 513.132 521.965 512.551 520.997Z" fill="white"/>
<path d="M494.862 520.545C494.862 520.222 494.669 519.512 494.475 518.931C494.281 518.35 494.346 517.898 494.733 517.898C495.572 517.898 496.218 520.352 495.443 520.868C495.12 521.062 494.862 520.933 494.862 520.545Z" fill="white"/>
<path d="M496.605 519.061C496.218 517.64 496.992 516.607 498.477 516.607C499.316 516.607 500.155 519.125 499.639 519.964C498.929 521.062 496.928 520.416 496.605 519.061Z" fill="white"/>
<path d="M501.124 519.383C500.156 518.415 500.737 516.091 502.028 515.768C502.996 515.51 503.513 515.833 504.029 516.995C504.416 517.834 504.61 518.673 504.481 518.802C503.835 519.383 501.511 519.835 501.124 519.383Z" fill="white"/>
<path d="M518.553 519.383C517.714 518.544 518.101 518.027 520.038 517.317C521.652 516.801 522.104 516.865 522.427 517.64C523.008 519.189 519.78 520.674 518.553 519.383Z" fill="white"/>
<path d="M524.235 517.899C523.589 516.866 524.493 515.962 526.171 515.962C528.173 515.962 528.754 517.64 526.946 518.157C525.009 518.673 524.687 518.609 524.235 517.899Z" fill="white"/>
<path d="M529.723 516.349C529.723 515.381 530.885 514.348 531.401 514.864C531.853 515.316 530.949 517.253 530.304 517.253C529.981 517.253 529.723 516.866 529.723 516.349Z" fill="white"/>
<path d="M494.023 515.51C493.765 515.316 493.571 514.477 493.636 513.767C493.636 512.541 493.7 512.541 494.281 513.961C494.927 515.51 494.798 516.285 494.023 515.51Z" fill="white"/>
<path d="M495.249 514.541C494.668 512.282 494.733 512.088 496.411 512.088C498.283 512.088 499.445 514.476 498.025 515.38C496.54 516.284 495.701 516.026 495.249 514.541Z" fill="white"/>
<path d="M517.457 515.832C517.457 515.639 517.78 514.606 518.167 513.444C519.071 510.862 521.072 510.732 521.524 513.25C521.718 514.218 521.782 515.058 521.718 515.122C521.395 515.51 517.457 516.091 517.457 515.832Z" fill="white"/>
<path d="M499.833 514.219C499.575 514.025 499.381 513.25 499.381 512.54C499.381 511.507 499.575 511.443 500.349 512.088C500.866 512.54 501.318 513.315 501.318 513.767C501.318 514.735 500.543 514.993 499.833 514.219Z" fill="white"/>
<path d="M523.072 512.927C522.685 510.926 523.524 510.022 525.526 510.28C526.494 510.41 526.817 510.991 526.817 512.411C526.817 514.025 526.558 514.412 525.138 514.541C523.718 514.735 523.395 514.412 523.072 512.927Z" fill="white"/>
<path d="M529.399 513.186C528.56 510.604 528.818 509.829 530.561 509.635C532.11 509.442 532.304 509.635 532.304 511.314C532.304 512.734 531.917 513.315 530.948 513.573C530.238 513.767 529.528 513.573 529.399 513.186Z" fill="white"/>
<path d="M493.055 509.506C493.055 508.279 493.184 507.763 493.377 508.408C493.507 508.989 493.507 510.022 493.377 510.668C493.184 511.249 493.055 510.732 493.055 509.506Z" fill="white"/>
<path d="M494.668 510.345C493.829 509.57 494.216 507.053 495.249 506.665C496.734 506.084 497.444 506.794 497.444 508.925C497.444 510.28 497.121 510.797 496.282 510.797C495.637 510.797 494.862 510.603 494.668 510.345Z" fill="white"/>
<path d="M498.541 508.602C498.283 507.634 498.154 506.601 498.412 506.408C499.058 505.762 499.445 506.795 499.251 508.667L499.058 510.474L498.541 508.602Z" fill="white"/>
<path d="M519.393 508.151C519.393 507.441 519.715 507.053 520.038 507.247C520.425 507.441 520.684 508.086 520.684 508.603C520.684 509.119 520.425 509.506 520.038 509.506C519.715 509.506 519.393 508.925 519.393 508.151Z" fill="white"/>
<path d="M522.299 508.99C521.395 508.022 522.105 506.279 523.59 505.891C525.462 505.439 525.527 505.439 526.108 507.311C526.495 508.473 526.237 508.732 524.558 508.99C523.525 509.184 522.492 509.119 522.299 508.99Z" fill="white"/>
<path d="M528.237 507.763C527.527 507.117 527.72 504.987 528.43 504.987C528.818 504.987 529.076 504.729 529.076 504.341C529.076 504.019 528.689 503.696 528.172 503.696C527.075 503.696 526.171 500.533 527.075 499.629C528.237 498.467 529.528 499.694 530.302 502.857C530.754 504.535 531.206 506.472 531.4 507.117C531.658 507.957 531.4 508.215 530.173 508.215C529.334 508.215 528.43 508.021 528.237 507.763Z" fill="white"/>
<path d="M531.723 504.342C531.271 502.405 530.109 498.532 529.27 495.691C527.979 491.56 527.85 490.527 528.56 490.075C529.012 489.752 529.593 489.494 529.786 489.494C530.496 489.494 533.078 502.728 532.82 505.31L532.627 507.892L531.723 504.342Z" fill="white"/>
<path d="M492.41 504.019C492.41 502.986 492.539 502.599 492.733 503.244C492.862 503.825 492.862 504.729 492.733 505.181C492.539 505.568 492.41 505.116 492.41 504.019Z" fill="white"/>
<path d="M493.7 503.89C493.959 501.631 495.831 501.114 496.347 503.18C496.799 504.859 496.928 504.665 494.991 505.31C493.636 505.698 493.507 505.569 493.7 503.89Z" fill="white"/>
<path d="M520.943 503.309C520.427 501.437 521.524 500.34 523.59 500.598C525.139 500.792 525.72 503.567 524.429 504.407C522.815 505.44 521.33 504.988 520.943 503.309Z" fill="white"/>
<path d="M497.445 502.793C497.445 501.695 497.768 501.114 498.478 501.114C499.124 501.114 499.382 501.566 499.253 502.534C498.93 504.6 497.445 504.794 497.445 502.793Z" fill="white"/>
<path d="M491.698 500.081C491.698 499.371 491.892 499.178 492.086 499.694C492.279 500.146 492.215 500.727 492.021 500.921C491.827 501.179 491.634 500.792 491.698 500.081Z" fill="white"/>
<path d="M492.926 499.888C492.926 498.92 493.313 498.532 494.281 498.532C495.185 498.532 495.508 498.855 495.379 499.63C495.056 501.308 492.926 501.502 492.926 499.888Z" fill="white"/>
<path d="M496.477 499.307C496.025 498.145 496.025 498.145 497.962 497.628C499.124 497.241 499.382 497.435 499.382 498.403C499.382 499.952 497.058 500.727 496.477 499.307Z" fill="white"/>
<path d="M519.844 498.402C519.393 496.788 520.232 495.949 522.491 495.949C523.589 495.949 523.911 496.337 523.911 497.563C523.911 498.531 523.524 499.177 523.008 499.177C522.491 499.177 521.652 499.371 521.136 499.564C520.555 499.758 520.103 499.371 519.844 498.402Z" fill="white"/>
<path d="M525.461 496.918C524.944 495.627 525.719 494.658 527.204 494.658C528.107 494.658 528.43 495.11 528.43 496.272C528.43 497.434 528.107 497.886 527.139 497.886C526.429 497.886 525.654 497.434 525.461 496.918Z" fill="white"/>
<path d="M492.279 496.014C492.279 494.658 493.764 493.109 494.41 493.819C494.668 494.013 494.862 494.916 494.862 495.756C494.862 496.789 494.474 497.24 493.57 497.24C492.731 497.24 492.279 496.789 492.279 496.014Z" fill="white"/>
<path d="M495.83 495.24C495.314 493.626 495.895 492.916 498.09 492.593C500.091 492.335 500.737 494.465 498.994 495.756C497.315 496.983 496.282 496.789 495.83 495.24Z" fill="white"/>
<path d="M519.2 494.852C518.748 494.465 518.555 492.077 518.942 492.077C519.007 492.077 519.975 491.818 521.137 491.496C523.074 490.915 523.203 490.979 523.138 492.722C523.074 494.013 522.686 494.659 521.718 494.917C519.975 495.369 519.717 495.369 519.2 494.852Z" fill="white"/>
<path d="M516.811 493.367C516.811 492.916 517.004 492.722 517.262 492.916C517.456 493.174 517.456 493.561 517.262 493.819C517.004 494.013 516.811 493.819 516.811 493.367Z" fill="white"/>
<path d="M524.042 492.334C524.236 491.237 526.237 489.623 526.689 490.139C526.883 490.333 527.205 491.108 527.399 491.947C527.851 493.238 527.657 493.367 525.85 493.367C524.3 493.367 523.848 493.109 524.042 492.334Z" fill="white"/>
<path d="M492.926 492.27C492.926 491.948 493.249 491.302 493.571 490.786C494.088 490.011 494.217 490.075 494.217 491.302C494.217 492.077 493.959 492.722 493.571 492.722C493.249 492.722 492.926 492.529 492.926 492.27Z" fill="white"/>
<path d="M494.863 490.85C494.863 489.042 496.219 488.461 497.252 489.817C497.897 490.785 497.897 491.108 497.252 491.56C495.896 492.399 494.863 492.141 494.863 490.85Z" fill="white"/>
<path d="M514.487 490.01C513.325 488.719 513.325 488.655 514.423 489.042C515.068 489.3 515.907 489.494 516.23 489.494C516.553 489.494 516.811 489.946 516.811 490.462C516.811 491.818 515.907 491.689 514.487 490.01Z" fill="white"/>
<path d="M500.607 489.945C497.831 487.815 497.444 483.038 500.026 483.038C501.769 483.038 503.383 485.749 503.125 488.267C502.931 490.591 502.156 491.107 500.607 489.945Z" fill="white"/>
<path d="M518.295 490.334C518.554 490.14 518.941 490.14 519.199 490.334C519.393 490.592 519.199 490.786 518.747 490.786C518.295 490.786 518.102 490.592 518.295 490.334Z" fill="white"/>
<path d="M528.043 487.816C528.236 487.235 528.43 486.654 528.43 486.525C528.43 486.396 528.753 486.267 529.076 486.267C529.463 486.267 529.721 486.848 529.721 487.558C529.721 488.332 529.269 488.849 528.688 488.849C527.978 488.849 527.785 488.526 528.043 487.816Z" fill="white"/>
<path d="M494.217 487.621C494.217 486.137 495.572 483.684 496.347 483.684C497.703 483.684 496.734 487.815 495.314 488.073C494.733 488.202 494.217 488.009 494.217 487.621Z" fill="white"/>
<path d="M508.741 486.912L506.805 486.46L508.548 486.008C510.355 485.492 511.646 485.879 511.646 486.977C511.646 487.622 511.582 487.622 508.741 486.912Z" fill="white"/>
<path d="M506.482 483.813C506.482 481.166 507.967 480.779 509.323 483.103C510.227 484.652 510.291 484.975 509.452 484.975C508.936 484.975 508.096 485.169 507.515 485.362C506.741 485.685 506.482 485.298 506.482 483.813Z" fill="white"/>
<path d="M517.715 484.716C514.81 483.425 512.938 480.004 512.938 475.937C512.938 473.032 513.196 472.322 514.939 470.708C516.036 469.675 517.134 468.836 517.456 468.836C518.877 468.836 524.106 473.807 525.849 476.905L527.85 480.456L525.719 482.715C523.266 485.297 520.555 486.008 517.715 484.716Z" fill="white"/>
<path d="M504.224 483.038C504.03 482.715 504.159 482.393 504.482 482.393C504.869 482.393 505.192 482.715 505.192 483.038C505.192 483.425 505.063 483.684 504.934 483.684C504.74 483.684 504.417 483.425 504.224 483.038Z" fill="white"/>
<path d="M495.765 482.005C495.959 481.424 496.153 480.843 496.153 480.714C496.153 480.585 496.734 480.456 497.444 480.456C499.058 480.456 499.122 481.489 497.508 482.393C495.765 483.296 495.314 483.232 495.765 482.005Z" fill="white"/>
<path d="M500.867 481.231C499.382 481.037 498.93 480.198 499.898 479.617C500.157 479.423 501.319 479.1 502.481 478.842C504.224 478.455 504.546 478.584 504.546 479.681C504.546 481.037 503.191 481.618 500.867 481.231Z" fill="white"/>
<path d="M505.836 479.036C505.836 478.262 505.9 477.81 506.03 477.939C506.094 478.068 506.611 478.714 507.062 479.359C507.837 480.263 507.773 480.457 506.869 480.457C506.223 480.457 505.836 479.94 505.836 479.036Z" fill="white"/>
<path d="M496.799 478.584C496.799 478.197 497.122 477.745 497.444 477.552C497.832 477.358 498.09 477.616 498.09 478.133C498.09 478.714 497.832 479.165 497.444 479.165C497.122 479.165 496.799 478.907 496.799 478.584Z" fill="white"/>
<path d="M499.187 477.616C498.671 476.325 503.254 474.905 504.029 476.131C504.61 477.164 504.029 477.616 501.575 478.133C500.091 478.455 499.445 478.326 499.187 477.616Z" fill="white"/>
<path d="M505.255 475.55C505.255 474.84 505.449 474.646 505.642 475.163C505.836 475.615 505.771 476.196 505.578 476.389C505.384 476.648 505.19 476.26 505.255 475.55Z" fill="white"/>
<path d="M499.769 474.518C500.543 473.097 502.803 470.773 503.384 470.773C504.029 470.773 504.094 473.808 503.448 474.195C503.125 474.324 502.093 474.647 501.124 474.905C499.704 475.228 499.381 475.163 499.769 474.518Z" fill="white"/>
<path d="M504.933 473.032C504.223 471.096 504.546 470.257 506.095 469.998C507.709 469.676 507.709 469.676 506.676 471.677C505.385 474.259 505.449 474.259 504.933 473.032Z" fill="white"/>
<path d="M504.545 469.159C504.545 469.03 505.836 468.126 507.45 467.222C509.387 466.06 510.742 465.673 511.711 465.931C512.873 466.318 512.55 466.577 509.709 467.932C506.546 469.352 504.545 469.869 504.545 469.159Z" fill="white"/>
<path d="M540.373 411.964C538.63 409.446 534.951 405.379 532.304 402.926C529.657 400.473 527.914 398.472 528.431 398.472C529.851 398.472 540.696 401.441 543.407 402.603C545.667 403.572 545.731 403.701 545.15 405.702C544.828 406.864 544.569 409.769 544.569 412.157C544.569 414.61 544.376 416.547 544.117 416.547C543.795 416.547 542.181 414.481 540.373 411.964Z" fill="white"/>
<path d="M409.005 607.5C406.358 606.145 405.777 605.37 402.42 598.721C397.579 589.296 397.449 587.101 402.033 592.459C403.84 594.589 408.036 598.979 411.329 602.207C416.945 607.63 417.203 608.017 415.331 607.759C413.976 607.565 413.459 607.694 413.782 608.211C414.557 609.373 412.103 609.05 409.005 607.5Z" fill="white"/>
<path fill-rule="evenodd" clip-rule="evenodd" d="M517.191 725.115C516.655 723.843 517.253 722.377 518.525 721.841L519.916 721.251C533.439 715.465 541.2 711.989 546.474 706.47C551.748 700.952 552.379 692.845 553.37 687.913C553.642 686.559 556.707 688.936 558.06 689.208C559.414 689.48 560.291 690.798 560.019 692.152C558.828 698.082 555.62 703.736 550.455 709.103C545.308 714.452 535.342 720.186 520.465 726.449C519.193 726.985 517.727 726.388 517.191 725.115Z" fill="#00160A"/>
<path fill-rule="evenodd" clip-rule="evenodd" d="M578.341 467.54C579.527 466.833 581.061 467.223 581.768 468.409C588.839 480.288 592.627 493.868 592.627 507.996C592.627 550.798 557.929 585.496 515.127 585.496C503.754 585.496 492.723 583.043 482.621 578.369C481.368 577.789 476.634 573.173 481.402 575.05C486.169 576.928 504.616 581.142 515.26 581.142C555.301 581.142 583.627 548.037 583.627 507.996C583.627 494.774 578.341 483.039 577.471 470.967C577.371 469.567 577.154 468.246 578.341 467.54Z" fill="#00160A"/>
<path fill-rule="evenodd" clip-rule="evenodd" d="M330.747 656.751C331.631 655.69 333.207 653.547 334.268 654.43C338.62 658.055 343.264 662.255 348.232 663.066C353.402 663.91 359.535 663.91 366.623 663.052C367.994 662.886 369.24 663.862 369.406 665.233C369.571 666.604 368.595 667.849 367.224 668.015C359.697 668.927 353.1 668.927 347.427 668.001C341.552 667.042 336.089 664.454 331.068 660.272C330.007 659.388 329.863 657.812 330.747 656.751Z" fill="#00160A"/>
<path d="M383.828 569.284C380.6 566.702 373.693 559.084 368.464 552.37C365.753 548.82 362.718 541.59 360.911 534.295C360.072 531.003 359.232 528.033 359.039 527.646C358.781 527.323 357.748 522.74 356.715 517.446C355.165 509.958 355.493 507.545 354.133 498.588C353.557 494.796 353.035 491.778 353.035 491.778L354.714 489.623C355.682 488.332 356.907 486.195 357.36 484.975C359.426 479.416 374.597 461.993 375.048 462.445C375.178 462.574 374.661 465.608 373.757 469.159C372.918 472.709 371.885 478.067 371.433 481.102C370.788 486.137 370.53 486.718 368.528 488.396C366.011 490.527 361.234 497.369 361.234 498.79C361.234 500.726 364.139 499.435 367.173 496.272L370.271 493.044V496.595C370.271 498.919 369.819 501.049 368.98 502.728C367.366 505.891 367.366 509.248 368.916 511.83C369.69 513.121 370.4 516.22 370.852 519.899C372.854 536.554 377.114 551.015 384.409 565.54C386.216 569.155 387.637 572.124 387.572 572.124C387.443 572.124 385.765 570.833 383.828 569.284Z" fill="white"/>
<path fill-rule="evenodd" clip-rule="evenodd" d="M652.441 609.115L657.089 611.181C658.053 611.626 668.686 616.735 681.458 622.871C702.048 632.765 728.199 645.33 728.358 645.33C728.616 645.33 729.828 642.529 730.101 639.262C730.747 632.226 733.135 622.672 735.911 616.022C737.202 613.053 738.235 609.341 738.235 609.019C738.235 608.871 737.186 608.448 735.468 607.755C733.422 606.93 730.43 605.723 727.132 604.144C710.864 596.333 679.038 580.388 675.1 577.999C671.227 575.74 670.452 575.546 670.452 577.031C670.452 578.968 666.514 587.941 663.48 592.782C661.866 595.429 658.703 600.206 656.444 603.37L652.441 609.115ZM727.261 633.711C729.112 634.784 725.905 636.357 725.13 636.616C720.569 637.003 715.199 636.145 710.799 633.581C708.498 631.95 690.383 621.886 678.367 615.21C672.874 612.159 668.656 609.815 667.805 609.309C665.094 607.695 662.512 605.952 662.06 605.435C660.704 603.692 661.996 602.918 665.804 603.241C668.094 603.435 723.262 631.393 727.261 633.711Z" fill="white"/>
<path d="M606.09 614.925C604.412 614.344 602.605 613.053 601.443 611.568L599.506 609.179L606.349 602.401C616.871 592.072 624.618 580.784 631.59 568.196C633.914 564 640.821 547.077 641.66 545.205C642.951 542.494 643.92 541.461 646.696 539.912C649.988 537.975 653.732 537.329 655.346 538.427C658.445 540.493 658.445 547.013 655.346 558.245C651.925 570.575 647.341 579.419 637.852 592.137C636.367 594.073 633.591 597.882 631.59 600.529C626.232 607.63 622.746 611.051 618.033 613.698C613.385 616.28 610.674 616.603 606.09 614.925Z" fill="white"/>
<path d="M630.428 613.439L629.072 612.084C629.072 612.084 651.573 583.497 655.604 572.963C658.681 564.925 660.492 562.646 662.935 562.646C664.301 562.646 665.417 562.957 665.933 563.732C666.837 565.088 667.708 566.766 666.546 572.512C664.609 581.807 661.64 587.94 652.731 601.174C650.665 604.208 648.019 607.565 646.857 608.727C644.145 611.245 638.045 613.827 634.495 614.408C632.235 614.731 631.59 614.601 630.428 613.439Z" fill="white"/>
<path fill-rule="evenodd" clip-rule="evenodd" d="M668.223 583.547C669.525 580.569 670.453 577.971 670.453 577.031C670.453 575.546 671.227 575.74 675.1 577.999C679.038 580.388 710.864 596.333 727.132 604.144C733.2 607.049 738.235 608.696 738.235 609.019C738.235 609.341 666.843 586.705 668.223 583.547Z" fill="#E7EAEE"/>
<path fill-rule="evenodd" clip-rule="evenodd" d="M447.35 587.23C439.152 581.872 426.757 569.284 420.754 560.311C412.168 547.4 406.487 533.585 403.711 518.737C401.71 507.956 401.775 491.366 403.776 481.747C405.842 471.935 408.488 464.446 413.201 454.957C418.688 443.982 424.498 435.913 433.213 427.198C441.759 418.652 403.776 453.994 413.201 517.228C420.754 570.218 453.214 591.093 447.35 587.23Z" fill="#E7EAEE"/>
<g clip-path="url(#clip0_124_439)">
<path d="M1285.6 164.502L1030.87 334.875L1030.41 334.986C1027.22 331.584 955.175 254.53 960.291 222.57C960.291 222.542 960.298 222.518 960.303 222.491C960.48 221.462 962.714 211.659 969.698 202.41C986.097 180.679 1012.77 144.084 1028.12 121.961C1031.51 117.078 1035.63 112.748 1040.32 109.12C1040.39 109.06 1040.47 109.002 1040.54 108.944C1040.66 108.85 1040.78 108.758 1040.9 108.673C1040.96 108.621 1041.03 108.573 1041.1 108.527C1041.94 107.888 1042.81 107.278 1043.69 106.694L1047.25 104.324L1180.14 15.6394L1180.69 16.3403C1182.11 20.2067 1188.67 36.7274 1205.71 60.8325C1236.76 104.767 1285.6 164.5 1285.6 164.5L1285.6 164.502Z" fill="url(#paint0_linear_124_439)"/>
<path d="M960.358 222.571C964.495 211.308 979.312 211.189 993.713 230.812C993.713 230.812 1018.14 152.137 1029.46 127.175C1036.87 110.806 1041.26 108.537 1041.26 108.537C1041.26 108.537 1027.19 116.017 1008.19 141.55C997.762 155.573 989.472 167.583 979.41 183.856C962.531 211.154 960.108 223.252 960.355 222.573L960.358 222.571Z" fill="url(#paint1_linear_124_439)"/>
<path d="M1022.64 220.517L1041.53 247.94L1035.52 252.076L1016.63 224.652L1022.64 220.517ZM1037.92 218.188L1021.02 229.828L1017.19 224.269L1034.09 212.629L1037.92 218.188ZM1043.79 230.593L1028.55 241.085L1024.83 235.674L1040.06 225.183L1043.79 230.593ZM1044.21 205.659L1063.1 233.083L1057.09 237.218L1038.2 209.795L1044.21 205.659ZM1074.75 225.057L1068.82 229.141L1049.93 201.718L1055.86 197.633L1083.21 208.627L1081.36 209.903L1067.42 189.669L1073.35 185.584L1092.24 213.008L1086.31 217.092L1058.98 206.136L1060.84 204.86L1074.75 225.057ZM1085.07 177.515L1103.96 204.938L1097.95 209.074L1079.06 181.65L1085.07 177.515ZM1094.76 182.587C1093.62 180.932 1093.04 179.177 1093.04 177.321C1093.02 175.441 1093.52 173.623 1094.53 171.868C1095.55 170.072 1097.04 168.502 1098.99 167.157C1100.97 165.796 1102.91 164.968 1104.82 164.672C1106.73 164.377 1108.5 164.596 1110.13 165.328C1111.79 166.044 1113.22 167.266 1114.41 168.995L1108.44 173.105C1107.78 172.142 1106.93 171.618 1105.89 171.534C1104.83 171.425 1103.73 171.762 1102.59 172.545C1101.38 173.379 1100.59 174.31 1100.2 175.34C1099.84 176.352 1099.98 177.315 1100.61 178.23C1101.19 179.07 1101.85 179.559 1102.6 179.697C1103.35 179.836 1104.28 179.672 1105.38 179.206L1110.08 177.224C1112.86 176.034 1115.28 175.648 1117.31 176.066C1119.33 176.46 1121.09 177.744 1122.59 179.918C1123.8 181.672 1124.43 183.514 1124.48 185.444C1124.52 187.349 1123.99 189.204 1122.91 191.01C1121.84 192.798 1120.26 194.416 1118.16 195.862C1116.14 197.258 1114.12 198.137 1112.11 198.501C1110.13 198.847 1108.28 198.68 1106.57 197.998C1104.87 197.275 1103.44 196.061 1102.26 194.356L1108.23 190.247C1108.91 191.235 1109.8 191.754 1110.89 191.804C1111.98 191.854 1113.19 191.419 1114.52 190.5C1115.88 189.564 1116.79 188.577 1117.24 187.538C1117.67 186.475 1117.59 185.511 1116.99 184.646C1116.47 183.88 1115.86 183.424 1115.18 183.276C1114.52 183.111 1113.67 183.257 1112.64 183.714L1107.86 185.746C1105.07 186.937 1102.58 187.274 1100.36 186.759C1098.17 186.226 1096.31 184.836 1094.76 182.587ZM1138.26 181.306L1132.26 185.441L1113.37 158.017L1119.37 153.882L1126.83 164.703L1137.43 157.403L1129.97 146.581L1135.98 142.446L1154.87 169.87L1148.86 174.005L1141.26 162.961L1130.66 170.262L1138.26 181.306ZM1177.98 153.949L1160.56 165.947L1141.67 138.523L1159.09 126.525L1162.92 132.084L1149.84 141.095L1150.43 138.39L1155.21 145.32L1165.32 138.351L1168.95 143.614L1158.83 150.583L1163.81 157.809L1161.07 157.401L1174.15 148.39L1177.98 153.949ZM1193.64 143.163L1182.89 150.566L1164 123.142L1174.38 115.994C1177.07 114.14 1179.83 113.095 1182.66 112.861C1185.51 112.609 1188.23 113.121 1190.82 114.397C1193.41 115.672 1195.64 117.669 1197.51 120.386C1199.35 123.055 1200.41 125.806 1200.68 128.639C1200.98 131.455 1200.53 134.133 1199.33 136.673C1198.15 139.196 1196.26 141.359 1193.64 143.163ZM1171.89 121.749L1187.06 143.762L1182.21 142.837L1189.22 138.012C1190.8 136.923 1191.92 135.675 1192.59 134.266C1193.29 132.841 1193.51 131.319 1193.27 129.7C1193.03 128.081 1192.33 126.432 1191.17 124.752C1189.98 123.022 1188.65 121.773 1187.17 121.005C1185.7 120.195 1184.16 119.878 1182.53 120.052C1180.91 120.185 1179.27 120.822 1177.61 121.962L1170.98 126.531L1171.89 121.749Z" fill="white"/>
</g>
<defs>
<linearGradient id="paint0_linear_124_439" x1="1098.44" y1="141.137" x2="897.543" y2="154.451" gradientUnits="userSpaceOnUse">
<stop stop-color="#F15010"/>
<stop offset="1" stop-color="#8E2901"/>
</linearGradient>
<linearGradient id="paint1_linear_124_439" x1="1031.28" y1="182.11" x2="983.673" y2="156.262" gradientUnits="userSpaceOnUse">
<stop stop-color="#F8AB14"/>
<stop offset="1" stop-color="#E93E3A"/>
</linearGradient>
<clipPath id="clip0_124_439">
<rect width="188.633" height="326.933" fill="white" transform="translate(1191.61 0.541992) rotate(56.2242)"/>
</clipPath>
</defs>
</svg>
