<svg width="142" height="651" viewBox="0 0 142 651" fill="none" xmlns="http://www.w3.org/2000/svg">
<path d="M44.0544 67.687H42.6284L36.6024 57.59H39.0634L41.6854 62.236L43.3414 65.686L45.0664 62.282L47.8494 57.59H50.0804L44.0544 67.687ZM44.3304 73H42.3524V66.445H44.3304V73ZM54.6247 73.23C53.582 73.23 52.6543 72.9923 51.8417 72.517C51.0443 72.0417 50.4157 71.3747 49.9557 70.516C49.511 69.642 49.2887 68.6147 49.2887 67.434C49.2887 66.2533 49.511 65.2337 49.9557 64.375C50.4003 63.501 51.0137 62.8263 51.7957 62.351C52.593 61.8757 53.4977 61.638 54.5097 61.638C55.5523 61.638 56.4493 61.8603 57.2007 62.305C57.9673 62.7343 58.55 63.3477 58.9487 64.145C59.3627 64.9423 59.5697 65.893 59.5697 66.997C59.5697 67.1657 59.562 67.3343 59.5467 67.503C59.5313 67.6563 59.5083 67.7867 59.4777 67.894H50.8067V66.445H58.2817L57.7987 67.135C57.7987 65.8777 57.5073 64.927 56.9247 64.283C56.342 63.639 55.537 63.317 54.5097 63.317C53.4977 63.317 52.6927 63.6543 52.0947 64.329C51.512 64.9883 51.2207 65.985 51.2207 67.319V67.572C51.2207 68.4153 51.3587 69.136 51.6347 69.734C51.9107 70.332 52.3017 70.792 52.8077 71.114C53.329 71.4207 53.9347 71.574 54.6247 71.574C55.376 71.574 55.9817 71.459 56.4417 71.229C56.917 70.999 57.2927 70.7153 57.5687 70.378C57.8447 70.0253 58.0517 69.6957 58.1897 69.389L59.4087 70.769C58.9947 71.4283 58.3967 72.0033 57.6147 72.494C56.8327 72.9847 55.836 73.23 54.6247 73.23ZM71.6028 73H70.3148C69.9315 73 69.5865 72.931 69.2798 72.793C68.9885 72.655 68.7585 72.4327 68.5898 72.126C68.4211 71.8193 68.3368 71.4053 68.3368 70.884V66.261L68.2678 65.939C68.2678 65.2337 68.0915 64.6433 67.7388 64.168C67.4015 63.6927 66.7651 63.455 65.8298 63.455C65.0325 63.455 64.3655 63.662 63.8288 64.076C63.3075 64.4747 62.9011 64.9807 62.6098 65.594L61.2528 64.191C61.4828 63.8077 61.8125 63.4243 62.2418 63.041C62.6865 62.6423 63.2308 62.3127 63.8748 62.052C64.5188 61.776 65.2471 61.638 66.0598 61.638C67.4245 61.638 68.4671 62.0213 69.1878 62.788C69.9085 63.5393 70.2688 64.582 70.2688 65.916V70.493C70.2688 70.7537 70.3225 70.9377 70.4298 71.045C70.5371 71.137 70.6905 71.183 70.8898 71.183H71.6028V73ZM64.4728 73.23C63.5375 73.23 62.8091 72.9923 62.2878 72.517C61.7818 72.0263 61.5288 71.413 61.5288 70.677C61.5288 69.9257 61.7818 69.3047 62.2878 68.814C62.7938 68.308 63.4455 67.8787 64.2428 67.526L68.6128 65.571L68.9118 66.905L65.0708 68.699C64.5495 68.9597 64.1661 69.2203 63.9208 69.481C63.6755 69.7263 63.5528 70.0177 63.5528 70.355C63.5528 70.7383 63.6831 71.0373 63.9438 71.252C64.2045 71.4667 64.5955 71.574 65.1168 71.574C65.5921 71.574 66.0215 71.505 66.4048 71.367C66.8035 71.2137 67.1408 71.0067 67.4168 70.746C67.7081 70.4853 67.9305 70.1863 68.0838 69.849C68.2525 69.5117 68.3368 69.136 68.3368 68.722L68.4058 69.78C68.3138 70.3013 68.1145 70.8303 67.8078 71.367C67.5011 71.8883 67.0718 72.333 66.5198 72.701C65.9678 73.0537 65.2855 73.23 64.4728 73.23ZM75.8979 73H73.9199V61.868H75.8979V73ZM75.8979 66.698L75.7599 65.755C75.8212 65.2337 75.9362 64.7277 76.1049 64.237C76.2889 63.7463 76.5265 63.3093 76.8179 62.926C77.1245 62.5273 77.4925 62.213 77.9219 61.983C78.3512 61.753 78.8419 61.638 79.3939 61.638C79.9919 61.638 80.5285 61.8373 81.0039 62.236C81.4945 62.6347 81.7399 63.2327 81.7399 64.03C81.7399 64.5053 81.6862 64.9117 81.5789 65.249C81.4869 65.571 81.3949 65.801 81.3029 65.939H79.1179C79.3019 65.7703 79.4552 65.5327 79.5779 65.226C79.7159 64.9193 79.7849 64.6127 79.7849 64.306C79.7849 63.984 79.6929 63.708 79.5089 63.478C79.3402 63.2327 79.0489 63.11 78.6349 63.11C78.1595 63.11 77.7149 63.2787 77.3009 63.616C76.8869 63.9533 76.5495 64.3903 76.2889 64.927C76.0282 65.4637 75.8979 66.054 75.8979 66.698ZM87.6325 73.23C86.8659 73.23 86.1299 73.115 85.4245 72.885C84.7192 72.655 84.1059 72.3177 83.5845 71.873C83.0785 71.413 82.6952 70.838 82.4345 70.148L83.8835 69.021C84.0215 69.435 84.2439 69.8413 84.5505 70.24C84.8725 70.6233 85.2942 70.9377 85.8155 71.183C86.3369 71.4283 86.9655 71.551 87.7015 71.551C88.3609 71.551 88.8899 71.4283 89.2885 71.183C89.6872 70.9223 89.8865 70.5467 89.8865 70.056C89.8865 69.55 89.6565 69.1897 89.1965 68.975C88.7519 68.7603 88.2075 68.5763 87.5635 68.423L86.0915 68.078C85.5702 67.9553 85.0565 67.779 84.5505 67.549C84.0445 67.3037 83.6229 66.974 83.2855 66.56C82.9482 66.1307 82.7795 65.5787 82.7795 64.904C82.7795 63.892 83.1399 63.0947 83.8605 62.512C84.5812 61.9293 85.5472 61.638 86.7585 61.638C87.9392 61.638 88.9205 61.9063 89.7025 62.443C90.4999 62.9797 91.0519 63.616 91.3585 64.352L89.8405 65.479C89.5645 64.8197 89.1582 64.2983 88.6215 63.915C88.1002 63.5317 87.4409 63.34 86.6435 63.34C86.0609 63.34 85.5855 63.4627 85.2175 63.708C84.8495 63.9533 84.6655 64.3137 84.6655 64.789C84.6655 65.2797 84.8495 65.64 85.2175 65.87C85.6009 66.1 86.1682 66.307 86.9195 66.491L88.3455 66.859C89.6029 67.1503 90.4692 67.5643 90.9445 68.101C91.4352 68.6223 91.6805 69.2663 91.6805 70.033C91.6805 70.769 91.4889 71.3747 91.1055 71.85C90.7375 72.31 90.2469 72.655 89.6335 72.885C89.0355 73.115 88.3685 73.23 87.6325 73.23ZM60.3735 107.23C59.2542 107.23 58.2422 107.031 57.3375 106.632C56.4328 106.218 55.6508 105.651 54.9915 104.93C54.3322 104.209 53.8185 103.366 53.4505 102.4C53.0978 101.434 52.9215 100.391 52.9215 99.272C52.9215 98.168 53.0978 97.1407 53.4505 96.19C53.8185 95.224 54.3322 94.3807 54.9915 93.66C55.6508 92.9393 56.4328 92.3797 57.3375 91.981C58.2422 91.567 59.2542 91.36 60.3735 91.36C61.4928 91.36 62.5048 91.567 63.4095 91.981C64.3295 92.3797 65.1115 92.9393 65.7555 93.66C66.4148 94.3807 66.9208 95.224 67.2735 96.19C67.6415 97.1407 67.8255 98.168 67.8255 99.272C67.8255 100.391 67.6415 101.434 67.2735 102.4C66.9208 103.366 66.4148 104.209 65.7555 104.93C65.1115 105.651 64.3295 106.218 63.4095 106.632C62.5048 107.031 61.4928 107.23 60.3735 107.23ZM60.3965 105.321C61.5618 105.321 62.5432 105.068 63.3405 104.562C64.1378 104.041 64.7358 103.328 65.1345 102.423C65.5485 101.503 65.7555 100.453 65.7555 99.272C65.7555 98.0913 65.5485 97.0563 65.1345 96.167C64.7358 95.2623 64.1378 94.5493 63.3405 94.028C62.5432 93.5067 61.5618 93.246 60.3965 93.246C59.2312 93.246 58.2422 93.5067 57.4295 94.028C56.6322 94.5493 56.0342 95.2623 55.6355 96.167C55.2368 97.0563 55.0375 98.0913 55.0375 99.272C55.0375 100.453 55.2368 101.503 55.6355 102.423C56.0342 103.328 56.6322 104.041 57.4295 104.562C58.2422 105.068 59.2312 105.321 60.3965 105.321ZM73.3696 107H71.3686V94.833C71.3686 94.0817 71.5142 93.453 71.8056 92.947C72.1122 92.4257 72.5262 92.0347 73.0476 91.774C73.5842 91.498 74.1976 91.36 74.8876 91.36C75.7462 91.36 76.4362 91.544 76.9576 91.912C77.4942 92.28 77.8776 92.6403 78.1076 92.993L77.0036 94.419C76.7889 94.0203 76.4976 93.6907 76.1296 93.43C75.7769 93.154 75.3552 93.016 74.8646 93.016C74.3432 93.016 73.9599 93.1617 73.7146 93.453C73.4846 93.729 73.3696 94.1353 73.3696 94.672V96.098V107ZM76.9576 97.432H69.5516V95.868H76.9576V97.432ZM14.7421 140H12.7641V124.59H14.7421V140ZM23.2981 140H13.4311V138.229H23.2981V140ZM21.8031 132.985H13.4311V131.214H21.8031V132.985ZM23.2981 126.361H13.4311V124.59H23.2981V126.361ZM26.0547 140H23.7547L27.7337 134.388L24.0307 128.868H26.3307L28.2627 131.858L29.2287 133.353L30.2177 131.858L32.1957 128.868H34.4957L30.5627 134.342L34.3347 140H32.0117L30.1487 137.102L29.0677 135.469L27.9867 137.102L26.0547 140ZM41.7296 140.23C40.8709 140.23 40.1809 140.031 39.6596 139.632C39.1382 139.233 38.7472 138.727 38.4866 138.114C38.2259 137.501 38.0572 136.849 37.9806 136.159L38.1186 135.216C38.1186 135.829 38.2106 136.389 38.3946 136.895C38.5939 137.386 38.9082 137.784 39.3376 138.091C39.7669 138.398 40.3342 138.551 41.0396 138.551C41.9289 138.551 42.6879 138.221 43.3166 137.562C43.9452 136.887 44.2596 135.837 44.2596 134.411C44.2596 132.985 43.9452 131.942 43.3166 131.283C42.6879 130.624 41.9289 130.294 41.0396 130.294C40.3342 130.294 39.7669 130.447 39.3376 130.754C38.9082 131.045 38.5939 131.444 38.3946 131.95C38.2106 132.456 38.1186 133.016 38.1186 133.629L37.9806 132.686C38.0572 131.996 38.2259 131.337 38.4866 130.708C38.7472 130.079 39.1382 129.573 39.6596 129.19C40.1809 128.807 40.8709 128.615 41.7296 128.615C42.6649 128.615 43.4699 128.853 44.1446 129.328C44.8192 129.803 45.3406 130.478 45.7086 131.352C46.0919 132.211 46.2836 133.23 46.2836 134.411C46.2836 135.576 46.0919 136.596 45.7086 137.47C45.3406 138.344 44.8192 139.026 44.1446 139.517C43.4699 139.992 42.6649 140.23 41.7296 140.23ZM38.1186 144.278H36.1406V128.868H38.1186V144.278ZM53.6139 140.23C52.5712 140.23 51.6436 139.992 50.8309 139.517C50.0336 139.042 49.4049 138.375 48.9449 137.516C48.5002 136.642 48.2779 135.615 48.2779 134.434C48.2779 133.253 48.5002 132.234 48.9449 131.375C49.3896 130.501 50.0029 129.826 50.7849 129.351C51.5822 128.876 52.4869 128.638 53.4989 128.638C54.5416 128.638 55.4386 128.86 56.1899 129.305C56.9566 129.734 57.5392 130.348 57.9379 131.145C58.3519 131.942 58.5589 132.893 58.5589 133.997C58.5589 134.166 58.5512 134.334 58.5359 134.503C58.5206 134.656 58.4976 134.787 58.4669 134.894H49.7959V133.445H57.2709L56.7879 134.135C56.7879 132.878 56.4966 131.927 55.9139 131.283C55.3312 130.639 54.5262 130.317 53.4989 130.317C52.4869 130.317 51.6819 130.654 51.0839 131.329C50.5012 131.988 50.2099 132.985 50.2099 134.319V134.572C50.2099 135.415 50.3479 136.136 50.6239 136.734C50.8999 137.332 51.2909 137.792 51.7969 138.114C52.3182 138.421 52.9239 138.574 53.6139 138.574C54.3652 138.574 54.9709 138.459 55.4309 138.229C55.9062 137.999 56.2819 137.715 56.5579 137.378C56.8339 137.025 57.0409 136.696 57.1789 136.389L58.3979 137.769C57.9839 138.428 57.3859 139.003 56.6039 139.494C55.8219 139.985 54.8252 140.23 53.6139 140.23ZM63.0727 140H61.0947V128.868H63.0727V140ZM63.0727 133.698L62.9347 132.755C62.996 132.234 63.111 131.728 63.2797 131.237C63.4637 130.746 63.7013 130.309 63.9927 129.926C64.2993 129.527 64.6673 129.213 65.0967 128.983C65.526 128.753 66.0167 128.638 66.5687 128.638C67.1667 128.638 67.7033 128.837 68.1787 129.236C68.6693 129.635 68.9147 130.233 68.9147 131.03C68.9147 131.505 68.861 131.912 68.7537 132.249C68.6617 132.571 68.5697 132.801 68.4777 132.939H66.2927C66.4767 132.77 66.63 132.533 66.7527 132.226C66.8907 131.919 66.9597 131.613 66.9597 131.306C66.9597 130.984 66.8677 130.708 66.6837 130.478C66.515 130.233 66.2237 130.11 65.8097 130.11C65.3343 130.11 64.8897 130.279 64.4757 130.616C64.0617 130.953 63.7243 131.39 63.4637 131.927C63.203 132.464 63.0727 133.054 63.0727 133.698ZM72.7533 127.074H70.7753V124.59H72.7533V127.074ZM72.7533 140H70.7753V128.868H72.7533V140ZM80.5221 140.23C79.4794 140.23 78.5518 139.992 77.7391 139.517C76.9418 139.042 76.3131 138.375 75.8531 137.516C75.4084 136.642 75.1861 135.615 75.1861 134.434C75.1861 133.253 75.4084 132.234 75.8531 131.375C76.2978 130.501 76.9111 129.826 77.6931 129.351C78.4904 128.876 79.3951 128.638 80.4071 128.638C81.4498 128.638 82.3468 128.86 83.0981 129.305C83.8648 129.734 84.4474 130.348 84.8461 131.145C85.2601 131.942 85.4671 132.893 85.4671 133.997C85.4671 134.166 85.4594 134.334 85.4441 134.503C85.4288 134.656 85.4058 134.787 85.3751 134.894H76.7041V133.445H84.1791L83.6961 134.135C83.6961 132.878 83.4048 131.927 82.8221 131.283C82.2394 130.639 81.4344 130.317 80.4071 130.317C79.3951 130.317 78.5901 130.654 77.9921 131.329C77.4094 131.988 77.1181 132.985 77.1181 134.319V134.572C77.1181 135.415 77.2561 136.136 77.5321 136.734C77.8081 137.332 78.1991 137.792 78.7051 138.114C79.2264 138.421 79.8321 138.574 80.5221 138.574C81.2734 138.574 81.8791 138.459 82.3391 138.229C82.8144 137.999 83.1901 137.715 83.4661 137.378C83.7421 137.025 83.9491 136.696 84.0871 136.389L85.3061 137.769C84.8921 138.428 84.2941 139.003 83.5121 139.494C82.7301 139.985 81.7334 140.23 80.5221 140.23ZM97.3639 140H95.3859V132.801C95.3859 132.08 95.2095 131.49 94.8569 131.03C94.5195 130.57 93.8755 130.34 92.9249 130.34C92.2042 130.34 91.6292 130.493 91.1999 130.8C90.7705 131.091 90.4562 131.49 90.2569 131.996C90.0729 132.502 89.9809 133.069 89.9809 133.698L89.8429 132.755C89.9195 132.065 90.1035 131.406 90.3949 130.777C90.7015 130.133 91.1309 129.619 91.6829 129.236C92.2502 128.837 92.9632 128.638 93.8219 128.638C94.9105 128.638 95.7692 128.96 96.3979 129.604C97.0419 130.233 97.3639 131.137 97.3639 132.318V140ZM89.9809 140H88.0029V128.868H89.9809V140ZM104.912 140.23C103.839 140.23 102.911 139.992 102.129 139.517C101.347 139.042 100.741 138.367 100.312 137.493C99.8827 136.619 99.668 135.599 99.668 134.434C99.668 133.253 99.8827 132.234 100.312 131.375C100.741 130.501 101.347 129.826 102.129 129.351C102.911 128.876 103.839 128.638 104.912 128.638C106.353 128.638 107.503 129.014 108.362 129.765C109.221 130.501 109.78 131.429 110.041 132.548L108.086 133.353C107.979 132.464 107.672 131.735 107.166 131.168C106.675 130.601 105.932 130.317 104.935 130.317C104.26 130.317 103.678 130.478 103.187 130.8C102.712 131.122 102.344 131.59 102.083 132.203C101.822 132.816 101.692 133.56 101.692 134.434C101.692 135.308 101.822 136.052 102.083 136.665C102.344 137.278 102.712 137.754 103.187 138.091C103.678 138.413 104.26 138.574 104.935 138.574C105.932 138.574 106.675 138.29 107.166 137.723C107.672 137.14 107.979 136.412 108.086 135.538L110.041 136.32C109.78 137.439 109.221 138.375 108.362 139.126C107.503 139.862 106.353 140.23 104.912 140.23ZM116.976 140.23C115.934 140.23 115.006 139.992 114.193 139.517C113.396 139.042 112.767 138.375 112.307 137.516C111.863 136.642 111.64 135.615 111.64 134.434C111.64 133.253 111.863 132.234 112.307 131.375C112.752 130.501 113.365 129.826 114.147 129.351C114.945 128.876 115.849 128.638 116.861 128.638C117.904 128.638 118.801 128.86 119.552 129.305C120.319 129.734 120.902 130.348 121.3 131.145C121.714 131.942 121.921 132.893 121.921 133.997C121.921 134.166 121.914 134.334 121.898 134.503C121.883 134.656 121.86 134.787 121.829 134.894H113.158V133.445H120.633L120.15 134.135C120.15 132.878 119.859 131.927 119.276 131.283C118.694 130.639 117.889 130.317 116.861 130.317C115.849 130.317 115.044 130.654 114.446 131.329C113.864 131.988 113.572 132.985 113.572 134.319V134.572C113.572 135.415 113.71 136.136 113.986 136.734C114.262 137.332 114.653 137.792 115.159 138.114C115.681 138.421 116.286 138.574 116.976 138.574C117.728 138.574 118.333 138.459 118.793 138.229C119.269 137.999 119.644 137.715 119.92 137.378C120.196 137.025 120.403 136.696 120.541 136.389L121.76 137.769C121.346 138.428 120.748 139.003 119.966 139.494C119.184 139.985 118.188 140.23 116.976 140.23Z" fill="#585858"/>
<path d="M47.8193 33.3974C44.9937 33.3974 42.6095 32.7498 40.6669 31.4547C38.7243 30.1302 37.2379 28.3201 36.2078 26.0243C35.207 23.7284 34.7066 21.1089 34.7066 18.1655C34.7066 15.2222 35.207 12.6173 36.2078 10.3509C37.2379 8.0551 38.7243 6.25965 40.6669 4.96458C42.6095 3.64007 44.9937 2.97782 47.8193 2.97782C50.6155 2.97782 52.9849 3.64007 54.9275 4.96458C56.8995 6.25965 58.3859 8.0551 59.3866 10.3509C60.3874 12.6173 60.8878 15.2222 60.8878 18.1655C60.8878 21.1089 60.3874 23.7284 59.3866 26.0243C58.3859 28.3201 56.8995 30.1302 54.9275 31.4547C52.9849 32.7498 50.6155 33.3974 47.8193 33.3974ZM47.8193 27.2605C49.3498 27.2605 50.586 26.8925 51.5279 26.1567C52.4698 25.4209 53.1615 24.3613 53.603 22.9779C54.0445 21.5945 54.2652 19.9904 54.2652 18.1655C54.2652 16.3112 54.0445 14.7071 53.603 13.3531C53.1615 11.9992 52.4698 10.9543 51.5279 10.2185C50.586 9.45319 49.3498 9.07055 47.8193 9.07055C46.2887 9.07055 45.0525 9.45319 44.1107 10.2185C43.1688 10.9543 42.4771 11.9992 42.0356 13.3531C41.5941 14.7071 41.3733 16.3112 41.3733 18.1655C41.3733 19.9904 41.5941 21.5945 42.0356 22.9779C42.4771 24.3613 43.1688 25.4209 44.1107 26.1567C45.0525 26.8925 46.2887 27.2605 47.8193 27.2605ZM87.0882 33H64.7481V28.2318L75.7416 18.1655C76.5363 17.4002 77.1985 16.7086 77.7283 16.0904C78.2876 15.4429 78.7143 14.8101 79.0087 14.192C79.3324 13.5739 79.4943 12.9263 79.4943 12.2494C79.4943 11.6313 79.3472 11.0868 79.0528 10.6158C78.7879 10.1154 78.3906 9.73281 77.8608 9.46791C77.331 9.17357 76.6834 9.0264 75.9182 9.0264C74.7114 9.0264 73.6223 9.29131 72.651 9.82111C71.6797 10.3509 70.8997 11.1898 70.3111 12.3377C69.7224 13.4856 69.3545 14.972 69.2073 16.7969L64.3066 12.8675C64.4832 10.866 65.1161 9.12942 66.2051 7.65775C67.2941 6.18607 68.7364 5.03817 70.5318 4.21403C72.3273 3.38989 74.3435 2.97782 76.5804 2.97782C78.6702 2.97782 80.4215 3.34574 81.8343 4.08158C83.2765 4.81741 84.3656 5.8623 85.1014 7.21624C85.8373 8.54075 86.2052 10.086 86.2052 11.852C86.2052 12.9999 85.9991 14.089 85.5871 15.1191C85.175 16.1493 84.6158 17.1206 83.9094 18.0331C83.203 18.9455 82.4082 19.7991 81.5252 20.5938C80.6422 21.3885 79.7298 22.1243 78.7879 22.8013L75.1235 25.6711L71.3265 28.0993L76.8453 27.3929H87.0882V33Z" fill="#F15010"/>
<path d="M32.5676 274.647H30.5896V259.237H32.5676V274.647ZM37.4436 261.008H25.7136V259.237H37.4436V261.008ZM40.5416 274.647H38.5636V263.515H40.5416V274.647ZM40.5416 268.345L40.4036 267.402C40.4649 266.881 40.5799 266.375 40.7486 265.884C40.9326 265.394 41.1703 264.957 41.4616 264.573C41.7683 264.175 42.1363 263.86 42.5656 263.63C42.9949 263.4 43.4856 263.285 44.0376 263.285C44.6356 263.285 45.1723 263.485 45.6476 263.883C46.1383 264.282 46.3836 264.88 46.3836 265.677C46.3836 266.153 46.3299 266.559 46.2226 266.896C46.1306 267.218 46.0386 267.448 45.9466 267.586H43.7616C43.9456 267.418 44.0989 267.18 44.2216 266.873C44.3596 266.567 44.4286 266.26 44.4286 265.953C44.4286 265.631 44.3366 265.355 44.1526 265.125C43.9839 264.88 43.6926 264.757 43.2786 264.757C42.8033 264.757 42.3586 264.926 41.9446 265.263C41.5306 265.601 41.1933 266.038 40.9326 266.574C40.6719 267.111 40.5416 267.701 40.5416 268.345ZM51.5825 274.877C50.8618 274.877 50.2332 274.739 49.6965 274.463C49.1598 274.172 48.7458 273.75 48.4545 273.198C48.1785 272.646 48.0405 271.987 48.0405 271.22V263.515H50.0185V270.737C50.0185 271.458 50.1948 272.048 50.5475 272.508C50.9002 272.968 51.5442 273.198 52.4795 273.198C53.2002 273.198 53.7752 273.045 54.2045 272.738C54.6338 272.432 54.9405 272.025 55.1245 271.519C55.3238 271.013 55.4235 270.454 55.4235 269.84L55.5615 270.783C55.4848 271.473 55.2932 272.133 54.9865 272.761C54.6952 273.375 54.2658 273.881 53.6985 274.279C53.1465 274.678 52.4412 274.877 51.5825 274.877ZM57.4015 274.647H55.4235V263.515H57.4015V274.647ZM64.4276 274.877C63.661 274.877 62.925 274.762 62.2196 274.532C61.5143 274.302 60.901 273.965 60.3796 273.52C59.8736 273.06 59.4903 272.485 59.2296 271.795L60.6786 270.668C60.8166 271.082 61.039 271.489 61.3456 271.887C61.6676 272.271 62.0893 272.585 62.6106 272.83C63.132 273.076 63.7606 273.198 64.4966 273.198C65.156 273.198 65.685 273.076 66.0836 272.83C66.4823 272.57 66.6816 272.194 66.6816 271.703C66.6816 271.197 66.4516 270.837 65.9916 270.622C65.547 270.408 65.0026 270.224 64.3586 270.07L62.8866 269.725C62.3653 269.603 61.8516 269.426 61.3456 269.196C60.8396 268.951 60.418 268.621 60.0806 268.207C59.7433 267.778 59.5746 267.226 59.5746 266.551C59.5746 265.539 59.935 264.742 60.6556 264.159C61.3763 263.577 62.3423 263.285 63.5536 263.285C64.7343 263.285 65.7156 263.554 66.4976 264.09C67.295 264.627 67.847 265.263 68.1536 265.999L66.6356 267.126C66.3596 266.467 65.9533 265.946 65.4166 265.562C64.8953 265.179 64.236 264.987 63.4386 264.987C62.856 264.987 62.3806 265.11 62.0126 265.355C61.6446 265.601 61.4606 265.961 61.4606 266.436C61.4606 266.927 61.6446 267.287 62.0126 267.517C62.396 267.747 62.9633 267.954 63.7146 268.138L65.1406 268.506C66.398 268.798 67.2643 269.212 67.7396 269.748C68.2303 270.27 68.4756 270.914 68.4756 271.68C68.4756 272.416 68.284 273.022 67.9006 273.497C67.5326 273.957 67.042 274.302 66.4286 274.532C65.8306 274.762 65.1636 274.877 64.4276 274.877ZM74.274 274.9C73.6606 274.9 73.124 274.778 72.664 274.532C72.204 274.272 71.8436 273.911 71.583 273.451C71.3223 272.991 71.192 272.439 71.192 271.795V262.089L73.17 260.617V271.197C73.17 271.903 73.3156 272.378 73.607 272.623C73.8983 272.853 74.2663 272.968 74.711 272.968C75.2016 272.968 75.6156 272.807 75.953 272.485C76.2903 272.148 76.5356 271.803 76.689 271.45L77.356 273.428C77.1106 273.812 76.7273 274.157 76.206 274.463C75.6846 274.755 75.0406 274.9 74.274 274.9ZM76.827 265.079H69.375V263.515H76.827V265.079ZM83.2596 274.877C82.2169 274.877 81.2893 274.64 80.4766 274.164C79.6793 273.689 79.0506 273.022 78.5906 272.163C78.1459 271.289 77.9236 270.262 77.9236 269.081C77.9236 267.901 78.1459 266.881 78.5906 266.022C79.0353 265.148 79.6486 264.474 80.4306 263.998C81.2279 263.523 82.1326 263.285 83.1446 263.285C84.1873 263.285 85.0843 263.508 85.8356 263.952C86.6023 264.382 87.1849 264.995 87.5836 265.792C87.9976 266.59 88.2046 267.54 88.2046 268.644C88.2046 268.813 88.1969 268.982 88.1816 269.15C88.1663 269.304 88.1433 269.434 88.1126 269.541H79.4416V268.092H86.9166L86.4336 268.782C86.4336 267.525 86.1423 266.574 85.5596 265.93C84.9769 265.286 84.1719 264.964 83.1446 264.964C82.1326 264.964 81.3276 265.302 80.7296 265.976C80.1469 266.636 79.8556 267.632 79.8556 268.966V269.219C79.8556 270.063 79.9936 270.783 80.2696 271.381C80.5456 271.979 80.9366 272.439 81.4426 272.761C81.9639 273.068 82.5696 273.221 83.2596 273.221C84.0109 273.221 84.6166 273.106 85.0766 272.876C85.5519 272.646 85.9276 272.363 86.2036 272.025C86.4796 271.673 86.6866 271.343 86.8246 271.036L88.0436 272.416C87.6296 273.076 87.0316 273.651 86.2496 274.141C85.4676 274.632 84.4709 274.877 83.2596 274.877ZM94.898 274.923C93.978 274.923 93.173 274.686 92.483 274.21C91.793 273.72 91.264 273.037 90.896 272.163C90.528 271.289 90.344 270.27 90.344 269.104C90.344 267.924 90.528 266.904 90.896 266.045C91.264 265.171 91.793 264.497 92.483 264.021C93.173 263.531 93.978 263.285 94.898 263.285C95.7566 263.285 96.4466 263.485 96.968 263.883C97.4893 264.267 97.8803 264.773 98.141 265.401C98.4016 266.03 98.5703 266.689 98.647 267.379L98.486 268.322C98.486 267.709 98.394 267.149 98.21 266.643C98.026 266.137 97.7193 265.739 97.29 265.447C96.8606 265.141 96.2856 264.987 95.565 264.987C94.691 264.987 93.9396 265.317 93.311 265.976C92.6823 266.636 92.368 267.678 92.368 269.104C92.368 270.515 92.6823 271.558 93.311 272.232C93.9396 272.907 94.691 273.244 95.565 273.244C96.2856 273.244 96.8606 273.091 97.29 272.784C97.7193 272.478 98.026 272.079 98.21 271.588C98.394 271.082 98.486 270.523 98.486 269.909L98.647 270.852C98.5703 271.527 98.4016 272.179 98.141 272.807C97.8803 273.421 97.4893 273.927 96.968 274.325C96.4466 274.724 95.7566 274.923 94.898 274.923ZM100.487 274.647H98.486V259.237H100.487V274.647ZM42.3966 303.831C40.8326 303.831 39.5139 303.479 38.4406 302.773C37.3826 302.068 36.5699 301.117 36.0026 299.921C35.4506 298.725 35.1746 297.391 35.1746 295.919C35.1746 294.432 35.4506 293.098 36.0026 291.917C36.5699 290.721 37.3826 289.771 38.4406 289.065C39.5139 288.36 40.8326 288.007 42.3966 288.007C43.5466 288.007 44.5663 288.207 45.4556 288.605C46.3449 288.989 47.0963 289.556 47.7096 290.307C48.3383 291.059 48.8213 291.963 49.1586 293.021L47.3646 294.194C47.1959 293.336 46.9046 292.584 46.4906 291.94C46.0919 291.281 45.5553 290.775 44.8806 290.422C44.2059 290.07 43.3856 289.893 42.4196 289.893C41.2389 289.893 40.2653 290.154 39.4986 290.675C38.7473 291.197 38.1876 291.91 37.8196 292.814C37.4669 293.704 37.2906 294.739 37.2906 295.919C37.2906 297.085 37.4669 298.12 37.8196 299.024C38.1876 299.929 38.7473 300.642 39.4986 301.163C40.2653 301.685 41.2389 301.945 42.4196 301.945C43.3856 301.945 44.2059 301.769 44.8806 301.416C45.5553 301.064 46.0919 300.565 46.4906 299.921C46.9046 299.262 47.1959 298.503 47.3646 297.644L49.1586 298.817C48.8213 299.86 48.3383 300.765 47.7096 301.531C47.0963 302.283 46.3449 302.858 45.4556 303.256C44.5663 303.64 43.5466 303.831 42.3966 303.831ZM53.6925 303.647H51.7145V288.237H53.6925V303.647ZM58.7013 290.721H56.7233V288.237H58.7013V290.721ZM58.7013 303.647H56.7233V292.515H58.7013V303.647ZM66.4701 303.877C65.4274 303.877 64.4997 303.64 63.6871 303.164C62.8897 302.689 62.2611 302.022 61.8011 301.163C61.3564 300.289 61.1341 299.262 61.1341 298.081C61.1341 296.901 61.3564 295.881 61.8011 295.022C62.2457 294.148 62.8591 293.474 63.6411 292.998C64.4384 292.523 65.3431 292.285 66.3551 292.285C67.3977 292.285 68.2947 292.508 69.0461 292.952C69.8127 293.382 70.3954 293.995 70.7941 294.792C71.2081 295.59 71.4151 296.54 71.4151 297.644C71.4151 297.813 71.4074 297.982 71.3921 298.15C71.3767 298.304 71.3537 298.434 71.3231 298.541H62.6521V297.092H70.1271L69.6441 297.782C69.6441 296.525 69.3527 295.574 68.7701 294.93C68.1874 294.286 67.3824 293.964 66.3551 293.964C65.3431 293.964 64.5381 294.302 63.9401 294.976C63.3574 295.636 63.0661 296.632 63.0661 297.966V298.219C63.0661 299.063 63.2041 299.783 63.4801 300.381C63.7561 300.979 64.1471 301.439 64.6531 301.761C65.1744 302.068 65.7801 302.221 66.4701 302.221C67.2214 302.221 67.8271 302.106 68.2871 301.876C68.7624 301.646 69.1381 301.363 69.4141 301.025C69.6901 300.673 69.8971 300.343 70.0351 300.036L71.2541 301.416C70.8401 302.076 70.2421 302.651 69.4601 303.141C68.6781 303.632 67.6814 303.877 66.4701 303.877ZM83.3118 303.647H81.3338V296.448C81.3338 295.728 81.1575 295.137 80.8048 294.677C80.4675 294.217 79.8235 293.987 78.8728 293.987C78.1521 293.987 77.5771 294.141 77.1478 294.447C76.7185 294.739 76.4041 295.137 76.2048 295.643C76.0208 296.149 75.9288 296.717 75.9288 297.345L75.7908 296.402C75.8675 295.712 76.0515 295.053 76.3428 294.424C76.6495 293.78 77.0788 293.267 77.6308 292.883C78.1981 292.485 78.9111 292.285 79.7698 292.285C80.8585 292.285 81.7171 292.607 82.3458 293.251C82.9898 293.88 83.3118 294.785 83.3118 295.965V303.647ZM75.9288 303.647H73.9508V292.515H75.9288V303.647ZM89.6934 303.9C89.0801 303.9 88.5434 303.778 88.0834 303.532C87.6234 303.272 87.2631 302.911 87.0024 302.451C86.7417 301.991 86.6114 301.439 86.6114 300.795V291.089L88.5894 289.617V300.197C88.5894 300.903 88.7351 301.378 89.0264 301.623C89.3177 301.853 89.6857 301.968 90.1304 301.968C90.6211 301.968 91.0351 301.807 91.3724 301.485C91.7097 301.148 91.9551 300.803 92.1084 300.45L92.7754 302.428C92.5301 302.812 92.1467 303.157 91.6254 303.463C91.1041 303.755 90.4601 303.9 89.6934 303.9ZM92.2464 294.079H84.7944V292.515H92.2464V294.079Z" fill="#585858"/>
<path d="M47.8193 235.103C44.9937 235.103 42.6095 234.456 40.6669 233.161C38.7243 231.836 37.2379 230.026 36.2078 227.73C35.207 225.434 34.7066 222.815 34.7066 219.872C34.7066 216.928 35.207 214.323 36.2078 212.057C37.2379 209.761 38.7243 207.966 40.6669 206.671C42.6095 205.346 44.9937 204.684 47.8193 204.684C50.6155 204.684 52.9849 205.346 54.9275 206.671C56.8995 207.966 58.3859 209.761 59.3866 212.057C60.3874 214.323 60.8878 216.928 60.8878 219.872C60.8878 222.815 60.3874 225.434 59.3866 227.73C58.3859 230.026 56.8995 231.836 54.9275 233.161C52.9849 234.456 50.6155 235.103 47.8193 235.103ZM47.8193 228.967C49.3498 228.967 50.586 228.599 51.5279 227.863C52.4698 227.127 53.1615 226.067 53.603 224.684C54.0445 223.301 54.2652 221.696 54.2652 219.872C54.2652 218.017 54.0445 216.413 53.603 215.059C53.1615 213.705 52.4698 212.66 51.5279 211.925C50.586 211.159 49.3498 210.777 47.8193 210.777C46.2887 210.777 45.0525 211.159 44.1107 211.925C43.1688 212.66 42.4771 213.705 42.0356 215.059C41.5941 216.413 41.3733 218.017 41.3733 219.872C41.3733 221.696 41.5941 223.301 42.0356 224.684C42.4771 226.067 43.1688 227.127 44.1107 227.863C45.0525 228.599 46.2887 228.967 47.8193 228.967ZM73.1501 234.706H66.1303C66.1303 231.557 66.4687 228.746 67.1457 226.273C67.8521 223.801 68.7498 221.623 69.8389 219.739C70.9279 217.826 72.0905 216.148 73.3267 214.706C74.563 213.264 75.7403 211.969 76.8588 210.821H61.7594V205.125H82.9074V211.042C81.6417 212.366 80.4202 213.779 79.2429 215.28C78.095 216.781 77.0501 218.459 76.1082 220.313C75.1958 222.167 74.4747 224.272 73.9448 226.627C73.415 228.981 73.1501 231.674 73.1501 234.706Z" fill="#F15010"/>
<path d="M48.1527 439.01H46.1747L40.4017 423.6H42.6097L46.0597 433.26L47.2097 437.239L48.3597 433.26L51.8327 423.6H53.9257L48.1527 439.01ZM57.5507 426.084H55.5727V423.6H57.5507V426.084ZM57.5507 439.01H55.5727V427.878H57.5507V439.01ZM64.9055 439.24C64.1388 439.24 63.4028 439.125 62.6975 438.895C61.9921 438.665 61.3788 438.327 60.8575 437.883C60.3515 437.423 59.9681 436.848 59.7075 436.158L61.1565 435.031C61.2945 435.445 61.5168 435.851 61.8235 436.25C62.1455 436.633 62.5671 436.947 63.0885 437.193C63.6098 437.438 64.2385 437.561 64.9745 437.561C65.6338 437.561 66.1628 437.438 66.5615 437.193C66.9601 436.932 67.1595 436.556 67.1595 436.066C67.1595 435.56 66.9295 435.199 66.4695 434.985C66.0248 434.77 65.4805 434.586 64.8365 434.433L63.3645 434.088C62.8431 433.965 62.3295 433.789 61.8235 433.559C61.3175 433.313 60.8958 432.984 60.5585 432.57C60.2211 432.14 60.0525 431.588 60.0525 430.914C60.0525 429.902 60.4128 429.104 61.1335 428.522C61.8541 427.939 62.8201 427.648 64.0315 427.648C65.2121 427.648 66.1935 427.916 66.9755 428.453C67.7728 428.989 68.3248 429.626 68.6315 430.362L67.1135 431.489C66.8375 430.829 66.4311 430.308 65.8945 429.925C65.3731 429.541 64.7138 429.35 63.9165 429.35C63.3338 429.35 62.8585 429.472 62.4905 429.718C62.1225 429.963 61.9385 430.323 61.9385 430.799C61.9385 431.289 62.1225 431.65 62.4905 431.88C62.8738 432.11 63.4411 432.317 64.1925 432.501L65.6185 432.869C66.8758 433.16 67.7421 433.574 68.2175 434.111C68.7081 434.632 68.9535 435.276 68.9535 436.043C68.9535 436.779 68.7618 437.384 68.3785 437.86C68.0105 438.32 67.5198 438.665 66.9065 438.895C66.3085 439.125 65.6415 439.24 64.9055 439.24ZM73.2509 426.084H71.2729V423.6H73.2509V426.084ZM73.2509 439.01H71.2729V427.878H73.2509V439.01ZM80.0077 439.263C79.3943 439.263 78.8577 439.14 78.3977 438.895C77.9377 438.634 77.5773 438.274 77.3167 437.814C77.056 437.354 76.9257 436.802 76.9257 436.158V426.452L78.9037 424.98V435.56C78.9037 436.265 79.0493 436.74 79.3407 436.986C79.632 437.216 80 437.331 80.4447 437.331C80.9353 437.331 81.3493 437.17 81.6867 436.848C82.024 436.51 82.2693 436.165 82.4227 435.813L83.0897 437.791C82.8443 438.174 82.461 438.519 81.9397 438.826C81.4183 439.117 80.7743 439.263 80.0077 439.263ZM82.5607 429.442H75.1087V427.878H82.5607V429.442ZM88.9933 439.24C87.9506 439.24 87.023 439.002 86.2103 438.527C85.413 438.051 84.7843 437.384 84.3243 436.526C83.8796 435.652 83.6573 434.624 83.6573 433.444C83.6573 432.263 83.8796 431.243 84.3243 430.385C84.769 429.511 85.3823 428.836 86.1643 428.361C86.9616 427.885 87.8663 427.648 88.8783 427.648C89.921 427.648 90.818 427.87 91.5693 428.315C92.336 428.744 92.9186 429.357 93.3173 430.155C93.7313 430.952 93.9383 431.903 93.9383 433.007C93.9383 433.175 93.9306 433.344 93.9153 433.513C93.9 433.666 93.877 433.796 93.8463 433.904H85.1753V432.455H92.6503L92.1673 433.145C92.1673 431.887 91.876 430.937 91.2933 430.293C90.7106 429.649 89.9056 429.327 88.8783 429.327C87.8663 429.327 87.0613 429.664 86.4633 430.339C85.8806 430.998 85.5893 431.995 85.5893 433.329V433.582C85.5893 434.425 85.7273 435.146 86.0033 435.744C86.2793 436.342 86.6703 436.802 87.1763 437.124C87.6976 437.43 88.3033 437.584 88.9933 437.584C89.7446 437.584 90.3503 437.469 90.8103 437.239C91.2856 437.009 91.6613 436.725 91.9373 436.388C92.2133 436.035 92.4203 435.705 92.5583 435.399L93.7773 436.779C93.3633 437.438 92.7653 438.013 91.9833 438.504C91.2013 438.994 90.2046 439.24 88.9933 439.24ZM100.632 439.286C99.7117 439.286 98.9067 439.048 98.2167 438.573C97.5267 438.082 96.9977 437.4 96.6297 436.526C96.2617 435.652 96.0777 434.632 96.0777 433.467C96.0777 432.286 96.2617 431.266 96.6297 430.408C96.9977 429.534 97.5267 428.859 98.2167 428.384C98.9067 427.893 99.7117 427.648 100.632 427.648C101.49 427.648 102.18 427.847 102.702 428.246C103.223 428.629 103.614 429.135 103.875 429.764C104.135 430.392 104.304 431.052 104.381 431.742L104.22 432.685C104.22 432.071 104.128 431.512 103.944 431.006C103.76 430.5 103.453 430.101 103.024 429.81C102.594 429.503 102.019 429.35 101.299 429.35C100.425 429.35 99.6733 429.679 99.0447 430.339C98.416 430.998 98.1017 432.041 98.1017 433.467C98.1017 434.877 98.416 435.92 99.0447 436.595C99.6733 437.269 100.425 437.607 101.299 437.607C102.019 437.607 102.594 437.453 103.024 437.147C103.453 436.84 103.76 436.441 103.944 435.951C104.128 435.445 104.22 434.885 104.22 434.272L104.381 435.215C104.304 435.889 104.135 436.541 103.875 437.17C103.614 437.783 103.223 438.289 102.702 438.688C102.18 439.086 101.49 439.286 100.632 439.286ZM106.221 439.01H104.22V423.6H106.221V439.01ZM23.1537 473.194C21.5897 473.194 20.2711 472.841 19.1977 472.136C18.1397 471.43 17.3271 470.48 16.7597 469.284C16.2077 468.088 15.9317 466.754 15.9317 465.282C15.9317 463.794 16.2077 462.46 16.7597 461.28C17.3271 460.084 18.1397 459.133 19.1977 458.428C20.2711 457.722 21.5897 457.37 23.1537 457.37C24.3037 457.37 25.3234 457.569 26.2127 457.968C27.1021 458.351 27.8534 458.918 28.4667 459.67C29.0954 460.421 29.5784 461.326 29.9157 462.384L28.1217 463.557C27.9531 462.698 27.6617 461.947 27.2477 461.303C26.8491 460.643 26.3124 460.137 25.6377 459.785C24.9631 459.432 24.1427 459.256 23.1767 459.256C21.9961 459.256 21.0224 459.516 20.2557 460.038C19.5044 460.559 18.9447 461.272 18.5767 462.177C18.2241 463.066 18.0477 464.101 18.0477 465.282C18.0477 466.447 18.2241 467.482 18.5767 468.387C18.9447 469.291 19.5044 470.004 20.2557 470.526C21.0224 471.047 21.9961 471.308 23.1767 471.308C24.1427 471.308 24.9631 471.131 25.6377 470.779C26.3124 470.426 26.8491 469.928 27.2477 469.284C27.6617 468.624 27.9531 467.865 28.1217 467.007L29.9157 468.18C29.5784 469.222 29.0954 470.127 28.4667 470.894C27.8534 471.645 27.1021 472.22 26.2127 472.619C25.3234 473.002 24.3037 473.194 23.1537 473.194ZM36.7764 473.24C35.7491 473.24 34.8367 473.002 34.0394 472.527C33.2574 472.051 32.6441 471.377 32.1994 470.503C31.7547 469.629 31.5324 468.609 31.5324 467.444C31.5324 466.263 31.7547 465.243 32.1994 464.385C32.6441 463.511 33.2574 462.836 34.0394 462.361C34.8367 461.885 35.7491 461.648 36.7764 461.648C37.8037 461.648 38.7084 461.885 39.4904 462.361C40.2877 462.836 40.9087 463.511 41.3534 464.385C41.8134 465.243 42.0434 466.263 42.0434 467.444C42.0434 468.609 41.8134 469.629 41.3534 470.503C40.9087 471.377 40.2877 472.051 39.4904 472.527C38.7084 473.002 37.8037 473.24 36.7764 473.24ZM36.7764 471.561C37.4204 471.561 37.9801 471.415 38.4554 471.124C38.9461 470.817 39.3294 470.365 39.6054 469.767C39.8814 469.153 40.0194 468.379 40.0194 467.444C40.0194 466.508 39.8814 465.742 39.6054 465.144C39.3294 464.53 38.9461 464.078 38.4554 463.787C37.9801 463.48 37.4204 463.327 36.7764 463.327C36.1477 463.327 35.5881 463.48 35.0974 463.787C34.6221 464.078 34.2464 464.53 33.9704 465.144C33.7097 465.742 33.5794 466.508 33.5794 467.444C33.5794 468.379 33.7097 469.153 33.9704 469.767C34.2464 470.365 34.6221 470.817 35.0974 471.124C35.5881 471.415 36.1477 471.561 36.7764 471.561ZM53.9166 473.01H51.9386V465.811C51.9386 465.09 51.7623 464.5 51.4096 464.04C51.0723 463.58 50.4283 463.35 49.4776 463.35C48.7569 463.35 48.1819 463.503 47.7526 463.81C47.3233 464.101 47.0089 464.5 46.8096 465.006C46.6256 465.512 46.5336 466.079 46.5336 466.708L46.3956 465.765C46.4723 465.075 46.6563 464.415 46.9476 463.787C47.2543 463.143 47.6836 462.629 48.2356 462.246C48.8029 461.847 49.5159 461.648 50.3746 461.648C51.4633 461.648 52.3219 461.97 52.9506 462.614C53.5946 463.242 53.9166 464.147 53.9166 465.328V473.01ZM46.5336 473.01H44.5556V461.878H46.5336V473.01ZM59.4472 473.01H57.4462V460.843C57.4462 460.091 57.5919 459.463 57.8832 458.957C58.1899 458.435 58.6039 458.044 59.1252 457.784C59.6619 457.508 60.2752 457.37 60.9652 457.37C61.8239 457.37 62.5139 457.554 63.0352 457.922C63.5719 458.29 63.9552 458.65 64.1852 459.003L63.0812 460.429C62.8665 460.03 62.5752 459.7 62.2072 459.44C61.8545 459.164 61.4329 459.026 60.9422 459.026C60.4209 459.026 60.0375 459.171 59.7922 459.463C59.5622 459.739 59.4472 460.145 59.4472 460.682V462.108V473.01ZM63.0352 463.442H55.6292V461.878H63.0352V463.442ZM69.1715 473.24C68.1289 473.24 67.2012 473.002 66.3885 472.527C65.5912 472.051 64.9625 471.384 64.5025 470.526C64.0579 469.652 63.8355 468.624 63.8355 467.444C63.8355 466.263 64.0579 465.243 64.5025 464.385C64.9472 463.511 65.5605 462.836 66.3425 462.361C67.1399 461.885 68.0445 461.648 69.0565 461.648C70.0992 461.648 70.9962 461.87 71.7475 462.315C72.5142 462.744 73.0969 463.357 73.4955 464.155C73.9095 464.952 74.1165 465.903 74.1165 467.007C74.1165 467.175 74.1089 467.344 74.0935 467.513C74.0782 467.666 74.0552 467.796 74.0245 467.904H65.3535V466.455H72.8285L72.3455 467.145C72.3455 465.887 72.0542 464.937 71.4715 464.293C70.8889 463.649 70.0839 463.327 69.0565 463.327C68.0445 463.327 67.2395 463.664 66.6415 464.339C66.0589 464.998 65.7675 465.995 65.7675 467.329V467.582C65.7675 468.425 65.9055 469.146 66.1815 469.744C66.4575 470.342 66.8485 470.802 67.3545 471.124C67.8759 471.43 68.4815 471.584 69.1715 471.584C69.9229 471.584 70.5285 471.469 70.9885 471.239C71.4639 471.009 71.8395 470.725 72.1155 470.388C72.3915 470.035 72.5985 469.705 72.7365 469.399L73.9555 470.779C73.5415 471.438 72.9435 472.013 72.1615 472.504C71.3795 472.994 70.3829 473.24 69.1715 473.24ZM78.6303 473.01H76.6523V461.878H78.6303V473.01ZM78.6303 466.708L78.4923 465.765C78.5536 465.243 78.6686 464.737 78.8373 464.247C79.0213 463.756 79.2589 463.319 79.5503 462.936C79.8569 462.537 80.2249 462.223 80.6543 461.993C81.0836 461.763 81.5743 461.648 82.1263 461.648C82.7243 461.648 83.2609 461.847 83.7363 462.246C84.2269 462.644 84.4723 463.242 84.4723 464.04C84.4723 464.515 84.4186 464.921 84.3113 465.259C84.2193 465.581 84.1273 465.811 84.0353 465.949H81.8503C82.0343 465.78 82.1876 465.542 82.3103 465.236C82.4483 464.929 82.5173 464.622 82.5173 464.316C82.5173 463.994 82.4253 463.718 82.2413 463.488C82.0726 463.242 81.7813 463.12 81.3673 463.12C80.8919 463.12 80.4473 463.288 80.0333 463.626C79.6193 463.963 79.2819 464.4 79.0213 464.937C78.7606 465.473 78.6303 466.064 78.6303 466.708ZM90.7565 473.24C89.7138 473.24 88.7862 473.002 87.9735 472.527C87.1762 472.051 86.5475 471.384 86.0875 470.526C85.6428 469.652 85.4205 468.624 85.4205 467.444C85.4205 466.263 85.6428 465.243 86.0875 464.385C86.5322 463.511 87.1455 462.836 87.9275 462.361C88.7248 461.885 89.6295 461.648 90.6415 461.648C91.6842 461.648 92.5812 461.87 93.3325 462.315C94.0992 462.744 94.6818 463.357 95.0805 464.155C95.4945 464.952 95.7015 465.903 95.7015 467.007C95.7015 467.175 95.6938 467.344 95.6785 467.513C95.6632 467.666 95.6402 467.796 95.6095 467.904H86.9385V466.455H94.4135L93.9305 467.145C93.9305 465.887 93.6392 464.937 93.0565 464.293C92.4738 463.649 91.6688 463.327 90.6415 463.327C89.6295 463.327 88.8245 463.664 88.2265 464.339C87.6438 464.998 87.3525 465.995 87.3525 467.329V467.582C87.3525 468.425 87.4905 469.146 87.7665 469.744C88.0425 470.342 88.4335 470.802 88.9395 471.124C89.4608 471.43 90.0665 471.584 90.7565 471.584C91.5078 471.584 92.1135 471.469 92.5735 471.239C93.0488 471.009 93.4245 470.725 93.7005 470.388C93.9765 470.035 94.1835 469.705 94.3215 469.399L95.5405 470.779C95.1265 471.438 94.5285 472.013 93.7465 472.504C92.9645 472.994 91.9678 473.24 90.7565 473.24ZM107.598 473.01H105.62V465.811C105.62 465.09 105.444 464.5 105.091 464.04C104.754 463.58 104.11 463.35 103.159 463.35C102.439 463.35 101.864 463.503 101.434 463.81C101.005 464.101 100.691 464.5 100.491 465.006C100.307 465.512 100.215 466.079 100.215 466.708L100.077 465.765C100.154 465.075 100.338 464.415 100.629 463.787C100.936 463.143 101.365 462.629 101.917 462.246C102.485 461.847 103.198 461.648 104.056 461.648C105.145 461.648 106.004 461.97 106.632 462.614C107.276 463.242 107.598 464.147 107.598 465.328V473.01ZM100.215 473.01H98.2372V461.878H100.215V473.01ZM115.146 473.24C114.073 473.24 113.145 473.002 112.363 472.527C111.581 472.051 110.976 471.377 110.546 470.503C110.117 469.629 109.902 468.609 109.902 467.444C109.902 466.263 110.117 465.243 110.546 464.385C110.976 463.511 111.581 462.836 112.363 462.361C113.145 461.885 114.073 461.648 115.146 461.648C116.588 461.648 117.738 462.023 118.596 462.775C119.455 463.511 120.015 464.438 120.275 465.558L118.32 466.363C118.213 465.473 117.906 464.745 117.4 464.178C116.91 463.61 116.166 463.327 115.169 463.327C114.495 463.327 113.912 463.488 113.421 463.81C112.946 464.132 112.578 464.599 112.317 465.213C112.057 465.826 111.926 466.57 111.926 467.444C111.926 468.318 112.057 469.061 112.317 469.675C112.578 470.288 112.946 470.763 113.421 471.101C113.912 471.423 114.495 471.584 115.169 471.584C116.166 471.584 116.91 471.3 117.4 470.733C117.906 470.15 118.213 469.422 118.32 468.548L120.275 469.33C120.015 470.449 119.455 471.384 118.596 472.136C117.738 472.872 116.588 473.24 115.146 473.24ZM127.211 473.24C126.168 473.24 125.24 473.002 124.428 472.527C123.63 472.051 123.002 471.384 122.542 470.526C122.097 469.652 121.875 468.624 121.875 467.444C121.875 466.263 122.097 465.243 122.542 464.385C122.986 463.511 123.6 462.836 124.382 462.361C125.179 461.885 126.084 461.648 127.096 461.648C128.138 461.648 129.035 461.87 129.787 462.315C130.553 462.744 131.136 463.357 131.535 464.155C131.949 464.952 132.156 465.903 132.156 467.007C132.156 467.175 132.148 467.344 132.133 467.513C132.117 467.666 132.094 467.796 132.064 467.904H123.393V466.455H130.868L130.385 467.145C130.385 465.887 130.093 464.937 129.511 464.293C128.928 463.649 128.123 463.327 127.096 463.327C126.084 463.327 125.279 463.664 124.681 464.339C124.098 464.998 123.807 465.995 123.807 467.329V467.582C123.807 468.425 123.945 469.146 124.221 469.744C124.497 470.342 124.888 470.802 125.394 471.124C125.915 471.43 126.521 471.584 127.211 471.584C127.962 471.584 128.568 471.469 129.028 471.239C129.503 471.009 129.879 470.725 130.155 470.388C130.431 470.035 130.638 469.705 130.776 469.399L131.995 470.779C131.581 471.438 130.983 472.013 130.201 472.504C129.419 472.994 128.422 473.24 127.211 473.24Z" fill="#585858"/>
<path d="M62.7594 399.188H56.4459V377.068H50.883V372.256C51.766 372.256 52.5607 372.168 53.2671 371.991C54.003 371.814 54.6799 371.535 55.298 371.152C55.9161 370.769 56.4754 370.254 56.9757 369.607H62.7594V399.188ZM91.6309 393.095H65.9796V388.194L80.0194 369.607H81.8737V376.538H81.1673L72.6905 387.62H91.6309V393.095ZM87.0835 399.188H80.77V369.607H87.0835V399.188Z" fill="#F15010"/>
<path d="M33.2976 609.804H31.4364V595.303H33.5357L37.2798 602.489L38.7514 605.67L40.2015 602.489L43.9672 595.303H46.0665V609.804H44.1837V601.796L44.3784 597.879L42.7769 601.471L39.6604 607.38H37.8208L34.7043 601.471L33.0812 597.879L33.2976 601.796V609.804ZM58.2271 609.804H57.0152C56.6545 609.804 56.3298 609.739 56.0413 609.609C55.7671 609.479 55.5507 609.27 55.392 608.981C55.2333 608.693 55.1539 608.303 55.1539 607.813V603.463L55.089 603.16C55.089 602.496 54.9231 601.94 54.5912 601.493C54.2738 601.046 53.675 600.822 52.7949 600.822C52.0447 600.822 51.417 601.017 50.912 601.407C50.4215 601.782 50.0391 602.258 49.765 602.835L48.4881 601.515C48.7045 601.154 49.0147 600.793 49.4187 600.433C49.8371 600.057 50.3493 599.747 50.9553 599.502C51.5613 599.242 52.2467 599.112 53.0113 599.112C54.2955 599.112 55.2766 599.473 55.9547 600.195C56.6328 600.902 56.9719 601.883 56.9719 603.138V607.445C56.9719 607.69 57.0224 607.863 57.1234 607.964C57.2244 608.051 57.3687 608.094 57.5562 608.094H58.2271V609.804ZM51.518 610.02C50.6379 610.02 49.9526 609.796 49.462 609.349C48.9859 608.888 48.7478 608.31 48.7478 607.618C48.7478 606.911 48.9859 606.327 49.462 605.865C49.9381 605.389 50.5513 604.985 51.3016 604.653L55.4136 602.813L55.695 604.069L52.0807 605.757C51.5902 606.002 51.2295 606.247 50.9986 606.492C50.7678 606.723 50.6523 606.997 50.6523 607.315C50.6523 607.676 50.775 607.957 51.0203 608.159C51.2655 608.361 51.6335 608.462 52.124 608.462C52.5713 608.462 52.9753 608.397 53.336 608.267C53.7111 608.123 54.0285 607.928 54.2882 607.683C54.5624 607.437 54.7716 607.156 54.9159 606.839C55.0746 606.521 55.1539 606.168 55.1539 605.778L55.2189 606.774C55.1323 607.264 54.9447 607.762 54.6562 608.267C54.3676 608.758 53.9636 609.176 53.4442 609.522C52.9248 609.854 52.2827 610.02 51.518 610.02ZM64.1592 610.02C63.4377 610.02 62.7452 609.912 62.0815 609.695C61.4178 609.479 60.8407 609.162 60.3501 608.743C59.874 608.31 59.5133 607.769 59.268 607.12L60.6315 606.06C60.7613 606.449 60.9705 606.832 61.2591 607.207C61.5621 607.567 61.9589 607.863 62.4494 608.094C62.94 608.325 63.5315 608.44 64.2241 608.44C64.8445 608.44 65.3423 608.325 65.7174 608.094C66.0925 607.849 66.2801 607.495 66.2801 607.033C66.2801 606.557 66.0637 606.218 65.6308 606.016C65.2124 605.814 64.7002 605.641 64.0942 605.497L62.7091 605.172C62.2186 605.057 61.7352 604.891 61.2591 604.674C60.783 604.444 60.3862 604.133 60.0688 603.744C59.7513 603.34 59.5926 602.82 59.5926 602.186C59.5926 601.233 59.9317 600.483 60.6098 599.935C61.2879 599.387 62.1969 599.112 63.3367 599.112C64.4477 599.112 65.3711 599.365 66.107 599.87C66.8572 600.375 67.3766 600.974 67.6652 601.666L66.2368 602.727C65.9771 602.106 65.5948 601.616 65.0898 601.255C64.5992 600.894 63.9788 600.714 63.2285 600.714C62.6803 600.714 62.233 600.829 61.8867 601.06C61.5404 601.291 61.3673 601.63 61.3673 602.077C61.3673 602.539 61.5404 602.878 61.8867 603.095C62.2474 603.311 62.7813 603.506 63.4882 603.679L64.8301 604.025C66.0132 604.299 66.8284 604.689 67.2756 605.194C67.7373 605.684 67.9682 606.29 67.9682 607.012C67.9682 607.704 67.7878 608.274 67.4271 608.722C67.0809 609.154 66.6192 609.479 66.042 609.695C65.4793 609.912 64.8517 610.02 64.1592 610.02ZM73.4242 610.042C72.8471 610.042 72.3421 609.926 71.9093 609.695C71.4764 609.45 71.1374 609.111 70.8921 608.678C70.6468 608.245 70.5242 607.726 70.5242 607.12V597.987L72.3854 596.602V606.557C72.3854 607.221 72.5225 607.668 72.7966 607.899C73.0708 608.116 73.417 608.224 73.8355 608.224C74.2972 608.224 74.6867 608.072 75.0041 607.769C75.3216 607.452 75.5524 607.127 75.6967 606.795L76.3243 608.657C76.0935 609.017 75.7328 609.342 75.2422 609.631C74.7516 609.905 74.1457 610.042 73.4242 610.042ZM75.8265 600.801H68.8144V599.329H75.8265V600.801ZM81.8795 610.02C80.8983 610.02 80.0254 609.796 79.2607 609.349C78.5105 608.902 77.9189 608.274 77.4861 607.466C77.0677 606.644 76.8584 605.677 76.8584 604.566C76.8584 603.455 77.0677 602.496 77.4861 601.688C77.9045 600.865 78.4816 600.231 79.2175 599.783C79.9677 599.336 80.819 599.112 81.7712 599.112C82.7524 599.112 83.5964 599.322 84.3034 599.74C85.0248 600.144 85.5731 600.721 85.9482 601.471C86.3378 602.222 86.5325 603.116 86.5325 604.155C86.5325 604.314 86.5253 604.472 86.5109 604.631C86.4965 604.775 86.4748 604.898 86.446 604.999H78.2868V603.636H85.3206L84.8661 604.285C84.8661 603.102 84.592 602.207 84.0437 601.601C83.4954 600.995 82.7379 600.692 81.7712 600.692C80.819 600.692 80.0615 601.01 79.4988 601.645C78.9505 602.265 78.6764 603.203 78.6764 604.458V604.696C78.6764 605.49 78.8062 606.168 79.066 606.731C79.3257 607.293 79.6936 607.726 80.1697 608.029C80.6603 608.318 81.2302 608.462 81.8795 608.462C82.5864 608.462 83.1563 608.354 83.5892 608.137C84.0365 607.921 84.39 607.654 84.6497 607.336C84.9094 607.005 85.1042 606.694 85.234 606.406L86.381 607.704C85.9915 608.325 85.4288 608.866 84.693 609.328C83.9571 609.789 83.0193 610.02 81.8795 610.02ZM90.7798 609.804H88.9186V599.329H90.7798V609.804ZM90.7798 603.874L90.65 602.986C90.7077 602.496 90.8159 602.02 90.9746 601.558C91.1478 601.096 91.3714 600.685 91.6455 600.324C91.9341 599.949 92.2804 599.653 92.6844 599.437C93.0884 599.221 93.5501 599.112 94.0695 599.112C94.6322 599.112 95.1372 599.3 95.5844 599.675C96.0461 600.05 96.277 600.613 96.277 601.363C96.277 601.81 96.2265 602.193 96.1255 602.51C96.0389 602.813 95.9524 603.03 95.8658 603.16H93.8098C93.9829 603.001 94.1272 602.777 94.2426 602.489C94.3725 602.2 94.4374 601.911 94.4374 601.623C94.4374 601.32 94.3508 601.06 94.1777 600.844C94.019 600.613 93.7448 600.498 93.3553 600.498C92.908 600.498 92.4896 600.656 92.1 600.974C91.7105 601.291 91.393 601.702 91.1478 602.207C90.9025 602.712 90.7798 603.268 90.7798 603.874ZM11.874 641.977C10.4023 641.977 9.16151 641.645 8.15154 640.981C7.15599 640.318 6.3913 639.423 5.85746 638.298C5.33804 637.172 5.07833 635.917 5.07833 634.532C5.07833 633.132 5.33804 631.877 5.85746 630.766C6.3913 629.641 7.15599 628.746 8.15154 628.083C9.16151 627.419 10.4023 627.087 11.874 627.087C12.9561 627.087 13.9156 627.275 14.7524 627.65C15.5893 628.01 16.2963 628.544 16.8734 629.251C17.4649 629.958 17.9194 630.809 18.2368 631.805L16.5487 632.909C16.39 632.101 16.1159 631.394 15.7263 630.788C15.3512 630.167 14.8462 629.691 14.2114 629.359C13.5765 629.028 12.8046 628.862 11.8957 628.862C10.7847 628.862 9.86849 629.107 9.14708 629.597C8.4401 630.088 7.91347 630.759 7.5672 631.61C7.23535 632.447 7.06942 633.421 7.06942 634.532C7.06942 635.628 7.23535 636.602 7.5672 637.454C7.91347 638.305 8.4401 638.976 9.14708 639.466C9.86849 639.957 10.7847 640.202 11.8957 640.202C12.8046 640.202 13.5765 640.036 14.2114 639.704C14.8462 639.373 15.3512 638.904 15.7263 638.298C16.1159 637.677 16.39 636.963 16.5487 636.155L18.2368 637.259C17.9194 638.24 17.4649 639.091 16.8734 639.813C16.2963 640.52 15.5893 641.061 14.7524 641.436C13.9156 641.796 12.9561 641.977 11.874 641.977ZM24.9522 642.02C23.9711 642.02 23.0982 641.796 22.3335 641.349C21.5832 640.902 20.9917 640.274 20.5588 639.466C20.1404 638.644 19.9312 637.677 19.9312 636.566C19.9312 635.455 20.1404 634.496 20.5588 633.688C20.9772 632.865 21.5544 632.231 22.2902 631.783C23.0405 631.336 23.8917 631.112 24.844 631.112C25.8251 631.112 26.6692 631.322 27.3761 631.74C28.0976 632.144 28.6458 632.721 29.021 633.471C29.4105 634.222 29.6053 635.116 29.6053 636.155C29.6053 636.314 29.5981 636.472 29.5837 636.631C29.5692 636.775 29.5476 636.898 29.5187 636.999H21.3596V635.636H28.3933L27.9388 636.285C27.9388 635.102 27.6647 634.207 27.1164 633.601C26.5682 632.995 25.8107 632.692 24.844 632.692C23.8917 632.692 23.1343 633.01 22.5716 633.645C22.0233 634.265 21.7491 635.203 21.7491 636.458V636.696C21.7491 637.49 21.879 638.168 22.1387 638.731C22.3984 639.293 22.7663 639.726 23.2425 640.029C23.733 640.318 24.3029 640.462 24.9522 640.462C25.6592 640.462 26.2291 640.354 26.6619 640.137C27.1092 639.921 27.4627 639.654 27.7224 639.336C27.9821 639.005 28.1769 638.694 28.3068 638.406L29.4538 639.704C29.0642 640.325 28.5015 640.866 27.7657 641.328C27.0299 641.789 26.092 642.02 24.9522 642.02ZM33.8526 641.804H31.9914V631.329H33.8526V641.804ZM33.8526 635.874L33.7227 634.986C33.7805 634.496 33.8887 634.02 34.0474 633.558C34.2205 633.096 34.4442 632.685 34.7183 632.324C35.0069 631.949 35.3531 631.653 35.7571 631.437C36.1611 631.221 36.6228 631.112 37.1422 631.112C37.7049 631.112 38.2099 631.3 38.6572 631.675C39.1189 632.05 39.3497 632.613 39.3497 633.363C39.3497 633.81 39.2992 634.193 39.1982 634.51C39.1117 634.813 39.0251 635.03 38.9385 635.16H36.8825C37.0557 635.001 37.1999 634.777 37.3154 634.489C37.4452 634.2 37.5101 633.911 37.5101 633.623C37.5101 633.32 37.4236 633.06 37.2504 632.844C37.0917 632.613 36.8176 632.498 36.428 632.498C35.9808 632.498 35.5623 632.656 35.1728 632.974C34.7832 633.291 34.4658 633.702 34.2205 634.207C33.9752 634.712 33.8526 635.268 33.8526 635.874ZM44.5643 642.042C43.9872 642.042 43.4822 641.926 43.0494 641.695C42.6165 641.45 42.2775 641.111 42.0322 640.678C41.7869 640.245 41.6643 639.726 41.6643 639.12V629.987L43.5255 628.602V638.557C43.5255 639.221 43.6626 639.668 43.9367 639.899C44.2109 640.116 44.5571 640.224 44.9756 640.224C45.4373 640.224 45.8268 640.072 46.1442 639.769C46.4617 639.452 46.6925 639.127 46.8368 638.795L47.4644 640.657C47.2336 641.017 46.8729 641.342 46.3823 641.631C45.8917 641.905 45.2858 642.042 44.5643 642.042ZM46.9666 632.801H39.9545V631.329H46.9666V632.801ZM51.1833 629.641H49.3221V627.303H51.1833V629.641ZM51.1833 641.804H49.3221V631.329H51.1833V641.804ZM56.7405 641.804H54.8576V630.355C54.8576 629.648 54.9947 629.056 55.2688 628.58C55.5574 628.09 55.9614 627.722 56.4808 627.477C57.0146 627.217 57.6495 627.087 58.3853 627.087C58.9624 627.087 59.4819 627.174 59.9436 627.347C60.4053 627.505 60.7876 627.7 61.0906 627.931C61.408 628.162 61.6389 628.364 61.7832 628.537L60.7443 629.879C60.5135 629.561 60.1816 629.28 59.7488 629.035C59.3159 628.775 58.8254 628.645 58.2771 628.645C57.7577 628.645 57.3681 628.789 57.1084 629.078C56.8631 629.367 56.7405 629.814 56.7405 630.42V631.545V641.804ZM61.2205 632.801H53.1479V631.329H61.2205V632.801ZM62.6488 641.804H60.7876V631.329H62.6488V641.804ZM69.8194 642.02C68.8094 642.02 67.9365 641.796 67.2007 641.349C66.4648 640.902 65.8949 640.267 65.4909 639.445C65.0869 638.622 64.8849 637.663 64.8849 636.566C64.8849 635.455 65.0869 634.496 65.4909 633.688C65.8949 632.865 66.4648 632.231 67.2007 631.783C67.9365 631.336 68.8094 631.112 69.8194 631.112C71.1756 631.112 72.2577 631.466 73.0657 632.173C73.8737 632.865 74.4003 633.738 74.6456 634.792L72.806 635.549C72.705 634.712 72.4164 634.027 71.9403 633.493C71.4786 632.959 70.7788 632.692 69.841 632.692C69.2062 632.692 68.6579 632.844 68.1962 633.147C67.7489 633.45 67.4026 633.89 67.1574 634.467C66.9121 635.044 66.7894 635.744 66.7894 636.566C66.7894 637.389 66.9121 638.088 67.1574 638.666C67.4026 639.243 67.7489 639.69 68.1962 640.007C68.6579 640.31 69.2062 640.462 69.841 640.462C70.7788 640.462 71.4786 640.195 71.9403 639.661C72.4164 639.113 72.705 638.428 72.806 637.605L74.6456 638.341C74.4003 639.394 73.8737 640.274 73.0657 640.981C72.2577 641.674 71.1756 642.02 69.8194 642.02ZM85.8401 641.804H84.6281C84.2674 641.804 83.9428 641.739 83.6542 641.609C83.3801 641.479 83.1636 641.27 83.0049 640.981C82.8462 640.693 82.7669 640.303 82.7669 639.813V635.463L82.7019 635.16C82.7019 634.496 82.536 633.94 82.2042 633.493C81.8867 633.046 81.288 632.822 80.4079 632.822C79.6576 632.822 79.03 633.017 78.525 633.407C78.0344 633.782 77.6521 634.258 77.3779 634.835L76.101 633.515C76.3175 633.154 76.6277 632.793 77.0317 632.433C77.4501 632.057 77.9623 631.747 78.5683 631.502C79.1742 631.242 79.8596 631.112 80.6243 631.112C81.9084 631.112 82.8895 631.473 83.5676 632.195C84.2458 632.902 84.5848 633.883 84.5848 635.138V639.445C84.5848 639.69 84.6353 639.863 84.7363 639.964C84.8373 640.051 84.9816 640.094 85.1692 640.094H85.8401V641.804ZM79.131 642.02C78.2508 642.02 77.5655 641.796 77.0749 641.349C76.5988 640.888 76.3608 640.31 76.3608 639.618C76.3608 638.911 76.5988 638.327 77.0749 637.865C77.5511 637.389 78.1643 636.985 78.9145 636.653L83.0266 634.813L83.3079 636.069L79.6937 637.757C79.2031 638.002 78.8424 638.247 78.6116 638.492C78.3807 638.723 78.2653 638.997 78.2653 639.315C78.2653 639.676 78.3879 639.957 78.6332 640.159C78.8785 640.361 79.2464 640.462 79.7369 640.462C80.1842 640.462 80.5882 640.397 80.9489 640.267C81.3241 640.123 81.6415 639.928 81.9012 639.683C82.1753 639.437 82.3845 639.156 82.5288 638.839C82.6875 638.521 82.7669 638.168 82.7669 637.778L82.8318 638.774C82.7452 639.264 82.5577 639.762 82.2691 640.267C81.9805 640.758 81.5765 641.176 81.0571 641.522C80.5377 641.854 79.8957 642.02 79.131 642.02ZM91.2305 642.042C90.6534 642.042 90.1484 641.926 89.7156 641.695C89.2827 641.45 88.9437 641.111 88.6984 640.678C88.4531 640.245 88.3305 639.726 88.3305 639.12V629.987L90.1917 628.602V638.557C90.1917 639.221 90.3288 639.668 90.6029 639.899C90.877 640.116 91.2233 640.224 91.6417 640.224C92.1034 640.224 92.493 640.072 92.8104 639.769C93.1278 639.452 93.3587 639.127 93.503 638.795L94.1306 640.657C93.8997 641.017 93.539 641.342 93.0485 641.631C92.5579 641.905 91.9519 642.042 91.2305 642.042ZM93.6328 632.801H86.6207V631.329H93.6328V632.801ZM97.8495 629.641H95.9883V627.303H97.8495V629.641ZM97.8495 641.804H95.9883V631.329H97.8495V641.804ZM104.9 642.02C103.933 642.02 103.075 641.796 102.325 641.349C101.589 640.902 101.012 640.267 100.593 639.445C100.175 638.622 99.9655 637.663 99.9655 636.566C99.9655 635.455 100.175 634.496 100.593 633.688C101.012 632.865 101.589 632.231 102.325 631.783C103.075 631.336 103.933 631.112 104.9 631.112C105.867 631.112 106.718 631.336 107.454 631.783C108.204 632.231 108.788 632.865 109.207 633.688C109.64 634.496 109.856 635.455 109.856 636.566C109.856 637.663 109.64 638.622 109.207 639.445C108.788 640.267 108.204 640.902 107.454 641.349C106.718 641.796 105.867 642.02 104.9 642.02ZM104.9 640.44C105.506 640.44 106.033 640.303 106.48 640.029C106.942 639.74 107.302 639.315 107.562 638.752C107.822 638.175 107.952 637.446 107.952 636.566C107.952 635.686 107.822 634.965 107.562 634.402C107.302 633.825 106.942 633.399 106.48 633.125C106.033 632.837 105.506 632.692 104.9 632.692C104.308 632.692 103.782 632.837 103.32 633.125C102.873 633.399 102.519 633.825 102.26 634.402C102.014 634.965 101.892 635.686 101.892 636.566C101.892 637.446 102.014 638.175 102.26 638.752C102.519 639.315 102.873 639.74 103.32 640.029C103.782 640.303 104.308 640.44 104.9 640.44ZM121.028 641.804H119.167V635.03C119.167 634.352 119.001 633.796 118.669 633.363C118.352 632.93 117.746 632.714 116.851 632.714C116.173 632.714 115.632 632.858 115.228 633.147C114.824 633.421 114.528 633.796 114.341 634.272C114.168 634.748 114.081 635.282 114.081 635.874L113.951 634.986C114.024 634.337 114.197 633.717 114.471 633.125C114.759 632.519 115.163 632.036 115.683 631.675C116.217 631.3 116.888 631.112 117.695 631.112C118.72 631.112 119.528 631.415 120.119 632.021C120.725 632.613 121.028 633.464 121.028 634.575V641.804ZM114.081 641.804H112.22V631.329H114.081V641.804Z" fill="#585858"/>
<path d="M40.0283 569.26C37.2026 569.26 34.8185 568.612 32.8759 567.317C30.9333 565.993 29.4469 564.182 28.4167 561.887C27.416 559.591 26.9156 556.971 26.9156 554.028C26.9156 551.084 27.416 548.48 28.4167 546.213C29.4469 543.917 30.9333 542.122 32.8759 540.827C34.8185 539.502 37.2026 538.84 40.0283 538.84C42.8244 538.84 45.1938 539.502 47.1365 540.827C49.1085 542.122 50.5949 543.917 51.5956 546.213C52.5964 548.48 53.0967 551.084 53.0967 554.028C53.0967 556.971 52.5964 559.591 51.5956 561.887C50.5949 564.182 49.1085 565.993 47.1365 567.317C45.1938 568.612 42.8244 569.26 40.0283 569.26ZM40.0283 563.123C41.5588 563.123 42.795 562.755 43.7369 562.019C44.6788 561.283 45.3704 560.224 45.8119 558.84C46.2534 557.457 46.4742 555.853 46.4742 554.028C46.4742 552.174 46.2534 550.569 45.8119 549.215C45.3704 547.861 44.6788 546.817 43.7369 546.081C42.795 545.315 41.5588 544.933 40.0283 544.933C38.4977 544.933 37.2615 545.315 36.3196 546.081C35.3778 546.817 34.6861 547.861 34.2446 549.215C33.8031 550.569 33.5823 552.174 33.5823 554.028C33.5823 555.853 33.8031 557.457 34.2446 558.84C34.6861 560.224 35.3778 561.283 36.3196 562.019C37.2615 562.755 38.4977 563.123 40.0283 563.123ZM68.3817 569.304C66.1448 569.304 64.1727 568.965 62.4656 568.288C60.7584 567.582 59.3456 566.64 58.2271 565.463C57.1381 564.256 56.3875 562.917 55.9755 561.445L60.6996 557.251C60.9939 558.516 61.4648 559.605 62.1124 560.518C62.7599 561.43 63.584 562.122 64.5848 562.593C65.5855 563.064 66.7923 563.299 68.2051 563.299C69.7062 563.299 70.8541 562.99 71.6488 562.372C72.473 561.754 72.885 560.901 72.885 559.811C72.885 558.987 72.6643 558.34 72.2228 557.869C71.8107 557.398 71.2073 557.074 70.4126 556.898C69.6473 556.692 68.7496 556.589 67.7194 556.589H63.172V551.511H68.0285C69.353 551.511 70.3979 551.261 71.1632 550.761C71.9579 550.26 72.3552 549.466 72.3552 548.377C72.3552 547.346 71.9873 546.508 71.2515 545.86C70.5451 545.212 69.5296 544.889 68.2051 544.889C66.498 544.889 65.0263 545.345 63.7901 546.257C62.5539 547.14 61.7444 548.48 61.3618 550.275L56.6377 546.169C57.1087 544.786 57.8592 543.549 58.8894 542.46C59.949 541.371 61.2735 540.503 62.8629 539.856C64.4818 539.179 66.3361 538.84 68.4258 538.84C70.7217 538.84 72.6348 539.223 74.1654 539.988C75.6959 540.753 76.8438 541.754 77.6091 542.99C78.3744 544.226 78.757 545.551 78.757 546.964C78.757 548.435 78.3891 549.672 77.6533 550.672C76.9468 551.644 76.0197 552.394 74.8718 552.924C73.7239 553.454 72.473 553.748 71.119 553.807C73.0616 553.866 74.6658 554.234 75.9314 554.911C77.197 555.558 78.1389 556.441 78.757 557.56C79.4045 558.649 79.7283 559.885 79.7283 561.268C79.7283 562.976 79.2279 564.433 78.2272 565.639C77.2559 566.817 75.9167 567.729 74.2095 568.377C72.5024 568.995 70.5598 569.304 68.3817 569.304Z" fill="#F15010"/>
</svg>
