<svg width="906" height="19" viewBox="0 0 906 19" fill="none" xmlns="http://www.w3.org/2000/svg">
<path d="M487.307 1.55366L489.166 1.43848C488.286 1.47513 487.72 1.51177 487.307 1.55366Z" fill="#202020"/>
<path d="M473.834 1.52734L473.504 1.73157C474.127 1.61637 474.384 1.53782 473.834 1.52734Z" fill="#202020"/>
<path d="M225.012 6.6543C227.724 7.04179 230.751 7.64397 230.421 7.17793L229.588 6.72237C227.693 6.80615 226.242 6.75379 225.012 6.6543Z" fill="#202020"/>
<path d="M363.44 3.93596C363.183 3.89406 362.911 3.84693 362.649 3.7998C361.989 3.9569 361.371 4.09825 360.816 4.2344C361.607 4.14015 362.503 4.04068 363.44 3.93596Z" fill="#202020"/>
<path d="M365.352 2.05664L368.923 2.34991C368.122 2.24518 366.97 2.1509 365.352 2.05664Z" fill="#202020"/>
<path d="M560.882 1.07213L563.055 0.611328C559.657 0.611328 561.154 0.846967 560.882 1.07213Z" fill="#202020"/>
<path d="M107.178 6.53327C109.518 6.7113 111.377 6.78462 113.016 6.80557C110.199 6.54375 107.927 6.15101 107.178 6.53327Z" fill="#202020"/>
<path d="M482.006 6.37709C483.143 6.29331 483.63 6.20434 483.598 6.09961C482.425 6.17815 481.765 6.26189 482.006 6.37709Z" fill="#202020"/>
<path d="M119.771 6.80594C119.357 6.75881 118.954 6.73783 118.535 6.70117C116.822 6.77972 115.105 6.83736 113.016 6.81118C115.094 7.00492 117.482 7.12536 119.771 6.81118V6.80594Z" fill="#202020"/>
<path d="M827.732 1.44953C827.926 1.47048 828.162 1.48094 828.335 1.50188C828.392 1.43904 828.125 1.43906 827.732 1.44953Z" fill="#202020"/>
<path d="M905.477 6.03711C904.713 6.06329 903.461 6.06326 902.283 6.07374C902.859 6.10515 903.817 6.09995 905.477 6.03711Z" fill="#202020"/>
<path d="M56.0025 6.89551C54.2588 6.92693 55.725 6.94787 56.0025 6.89551V6.89551Z" fill="#202020"/>
<path d="M47.5137 5.09886C47.8855 5.04649 48.1682 4.98363 48.2101 4.87891C48.0687 4.98887 47.8226 5.05697 47.5137 5.09886Z" fill="#202020"/>
<path d="M137.155 3.97898C137.207 3.97898 137.249 3.97898 137.307 3.97898C136.788 3.88997 136.877 3.90567 137.155 3.97898Z" fill="#202020"/>
<path d="M53.373 6.69141C54.0276 6.74901 54.7816 6.79607 55.6037 6.82749C55.2424 6.79084 54.5669 6.74901 53.373 6.69141Z" fill="#202020"/>
<path d="M53.7298 6.90613C53.1276 6.88518 52.6563 6.87473 52.206 6.86426C51.9861 6.93757 52.1798 6.98991 53.7298 6.90613Z" fill="#202020"/>
<path d="M58.4311 6.87432C57.431 6.87956 56.5042 6.85857 55.6035 6.82715C55.9439 6.85857 56.0905 6.88476 55.9962 6.90047C56.5094 6.89523 57.232 6.88479 58.4259 6.87432H58.4311Z" fill="#202020"/>
<path d="M684.754 2.67014C684.869 2.68585 685 2.6963 685.131 2.71201C686.89 2.5235 686.121 2.55494 684.754 2.67014Z" fill="#202020"/>
<path d="M270.441 1.93164C270.357 1.93164 270.315 1.94737 270.242 1.95261C270.326 1.95261 270.425 1.96309 270.499 1.96833L270.441 1.93164Z" fill="#202020"/>
<path d="M276.71 1.5957C274.04 2.16123 272.521 2.09321 270.5 1.97277L272.574 3.28186L276.71 1.5957Z" fill="#202020"/>
<path d="M493.561 12.4233L489.157 12.0148C494.472 11.3446 498.316 11.575 494.184 10.999C493.561 12.4233 477.072 11.1456 476.459 12.5647L473.558 12.2662C474.391 12.2819 474.522 12.1981 475.344 12.2086C469.699 11.5279 471.15 13.235 463.876 13.036C461.342 12.926 459.572 12.7218 461.3 12.5542L455.655 12.9051C454.011 12.8789 454.414 12.6327 456.048 12.6589L447.434 12.7742L447.497 12.7322C446.266 12.9574 443.486 13.2978 442.124 13.4496C439.936 13.2454 443.224 13.2977 442.664 13.1197L437.893 13.4653C435.951 13.0988 439.904 12.7375 443.198 12.7898C438.742 11.3708 439.239 13.1459 429.63 12.3186L434.134 12.1405C431.233 11.3341 427.714 11.6274 422.624 11.1247C423.834 11.3865 432.819 12.3919 427.641 12.748C426.18 12.638 424.258 12.5909 421.467 12.8736C421.441 12.3657 418.713 12.4913 415.304 12.5228L415.534 11.8526C411.848 12.0463 412.136 12.3866 409.968 12.6904C405.857 12.6223 405.004 12.1039 404.035 11.6693C397.453 11.5646 408.58 12.5019 400.788 12.6275C395.311 12.3709 391.468 12.6432 384.917 13.0464C381.084 12.816 385.587 12.638 384.21 12.4443L380.812 12.9784C379.979 12.9679 380.246 12.8003 380.388 12.7166C377.523 12.926 380.152 13.3868 375.654 13.57C374.439 14.3084 366.417 12.4914 360.846 13.3292C359.474 13.1407 361.511 12.9207 361.086 12.6589C353.447 13.2087 354.536 13.0569 348.263 13.8005L342.916 13.3606C346.844 13.8633 341.827 14.4602 337.429 14.9472C338.821 15.1881 340.01 15.4028 340.811 15.5023L333.794 15.8636C332.946 15.7536 333.653 15.5232 334.805 15.2457C334.329 15.3033 333.873 15.3556 333.522 15.408C331.014 15.1619 332.313 14.7744 334.114 14.3974C334.967 14.5283 335.816 14.6697 336.643 14.8111C338.376 14.4027 339.994 13.9523 339.633 13.5596C339.177 13.6382 338.298 13.701 337.334 13.7429C337.785 13.6329 338.078 13.5334 337.868 13.4653C337.633 13.3973 336.9 13.5439 335.753 13.7114L334.156 12.9627L333.768 13.2611L324.594 12.7951C318.028 13.5491 312.315 14.654 301.895 14.9629C304.481 14.4131 302.45 14.0675 302.591 13.4182C305.434 14.1042 310.66 13.125 316.064 13.2663C313.247 13.193 313.865 12.8841 314.582 12.7794L304.947 13.4025C305.162 12.8736 302.9 13.0045 300.386 12.7846C302.287 13.8319 293.207 13.4811 289.285 13.8057C289.044 13.4549 289.982 13.0935 294.763 13.1773C289.484 12.3866 287.945 14.4079 282.766 13.7376C283.934 13.7272 284.562 13.7848 285.023 13.6015C282.295 13.9157 275.629 13.6643 277.195 13.3606H278.357C270.607 13.2297 254.762 13.3449 253.605 14.2351C253.526 14.1199 254.621 13.1616 255.092 12.9836L241.263 15.9788C242.483 15.2143 237.801 13.392 244.232 12.9574C242.388 12.8475 240.1 12.7217 236.21 12.9888C237.466 13.0988 239.346 14.0937 237.629 14.167C232.905 13.3135 234.351 13.7114 228.528 12.9836C230.413 13.1459 228.318 14.345 225.334 14.3084C225.8 14.1303 225.088 13.125 226.177 12.9993L218.752 14.1775C220.605 13.9628 219.076 13.1774 217.416 12.8475C218.186 13.0779 210.996 12.8265 209.022 12.9417L212.169 13.214C203.786 13.036 203.891 14.8687 195.575 14.8111C196.581 14.565 198.063 13.3135 193.832 13.1669C191.894 13.7691 185.249 16.0678 177.892 16.5338L176.478 16.1882L170.834 16.5809C174.347 15.675 184.213 13.7638 189.595 13.0203C186.459 12.748 188.721 12.6118 184.024 12.6432C182.364 12.3186 186.585 12.151 187.967 12.1353L177.033 11.9259C177.52 12.6328 168.671 12.6328 169.09 13.2192L180.966 12.4914C181.448 13.193 174.096 14.4916 166.351 14.366C164.382 14.0884 167.828 13.1145 167.666 12.8789C166.66 13.1197 160.314 13.3397 159.602 13.1721L162.89 12.7951C158.575 12.528 155.852 13.7271 150.668 13.0569C148.878 13.0098 145.327 12.151 145.018 12.5647C147.935 13.3659 148.506 15.8531 146.563 16.4553C145.935 16.4029 137.169 15.6855 135.127 15.2928C132.179 14.6645 139.552 13.79 137.043 13.2506C136.933 13.4444 135.31 13.6801 134.629 13.7586C132.75 13.5963 135.41 13.1616 131.325 13.2506C130.644 13.9628 123.02 13.1878 129.393 13.8528C125.398 14.057 125.146 13.7062 120.46 13.7376C121.952 14.1984 116.25 15.3085 112.249 15.5128C112.485 15.3295 111.584 15.0939 111.15 14.9891C102.965 14.9263 98.5665 14.6016 90.9319 14.5964C90.2302 14.4236 86.5438 14.2141 88.1147 13.9052C87.0151 14.0308 86.0097 14.2717 83.6534 14.2927C79.0977 13.6748 88.9054 14.1984 85.4285 13.4548C85.13 13.8685 79.3386 14.0257 75.9873 14.2875C77.0189 14.9263 83.7372 14.4079 87.0937 14.1513C87.1094 15.0363 81.2603 15.9579 73.2854 16.3715C66.9441 16.5915 70.5363 15.8007 69.4366 15.9264C57.5239 15.7745 59.2886 17.4712 49.3971 16.8323C45.475 16.2668 49.219 15.7117 48.3498 15.3085C53.5181 15.0938 56.2829 15.6646 59.7808 15.6437L55.4713 15.3766C57.1155 15.1881 60.561 15.0467 62.4409 15.209C59.1524 14.7011 42.3175 15.1095 33.1277 14.6435C31.4939 14.832 28.6768 15.0258 30.0121 15.2562L32.9182 15.1776C35.5888 15.6332 27.4462 15.806 31.1274 16.0154C27.2263 16.3349 22.8539 16.8375 17.3662 16.5809L16.3347 15.9369C16.4499 16.1254 19.9216 16.3191 21.4663 16.1254C19.178 16.4081 13.0462 15.2562 10.538 16.0992L14.3867 16.5443C10.4699 16.869 5.63154 17.5497 0.761719 17.3455C2.9767 17.9791 1.8823 17.2722 5.34354 18.0158C2.34834 17.0942 17.7904 18.0524 12.9782 17.0837C16.5284 17.9424 19.1204 17.4502 23.7598 18.1833C23.6185 17.9738 22.1156 17.7801 26.2 17.8849C26.3833 17.822 26.8179 17.7434 27.0954 17.6963C27.2211 17.7015 27.263 17.7068 27.3729 17.712C27.2891 17.7015 27.2315 17.6963 27.1478 17.6859C27.3258 17.6545 27.3415 17.6492 27.064 17.6754C26.09 17.5811 25.3046 17.4712 24.9851 17.3507C27.0116 16.8638 33.5099 16.8795 35.704 16.6281C38.1284 16.7276 34.6881 16.869 36.0129 17.0994L39.2961 16.7223C39.6208 17.1936 45.7369 17.5026 40.024 17.7801L45.1661 17.8011C48.1927 18.0629 52.3556 18.1676 54.9214 17.9738C57.3459 18.0733 61.0427 17.4555 58.9325 17.822L66.9913 17.5288L67.0646 17.6439C75.0186 17.7015 83.4387 16.8637 92.529 17.712C95.2048 17.5916 97.9748 17.4502 102.452 17.5811L103.326 17.9896C106.761 17.8482 113.652 18.398 115.129 17.9738C118.836 19.0682 131.812 18.2147 137.86 18.4085L138.091 17.8796C142.253 17.911 146.244 17.7592 151.407 17.5445L151.087 17.0732C155.543 16.6857 162.539 17.4083 169.582 17.3612C169.1 17.5393 167.315 17.4921 166.053 17.3874C174.468 18.4503 183.809 16.6176 191.444 17.3874C193.345 17.2146 194.722 17.2722 196.057 17.3926C195.879 17.3926 195.722 17.4031 195.586 17.4188C195.78 17.424 196.073 17.4241 196.366 17.4241C197.204 17.5026 198.073 17.5968 199.01 17.6754C198.215 17.5602 197.45 17.4659 196.79 17.4241C198.256 17.4136 200.482 17.3559 202.665 17.2407L203.592 17.7435C203.77 17.7382 203.912 17.7382 204.095 17.7277C206.237 17.9162 205.818 17.4868 204.676 17.1098C205.776 17.026 206.781 16.9266 207.561 16.8061C209.3 17.6178 213.285 16.5338 215.657 17.3978C217.128 16.9737 226.622 17.0784 227.784 16.1882C227.858 16.3034 228.502 16.3611 227.323 16.3663C229.753 16.4658 232.183 16.5705 234.366 16.3191L235.398 16.958L240.708 16.094C243.933 16.4867 245.268 16.7119 242.069 17.2041C249.803 16.4448 248.342 16.9161 254.919 16.1673L254.6 16.5809C256.951 16.5652 260.711 16.0102 262.124 16.3506C267.382 17.136 288.144 16.4605 301.638 17.1936C299.02 15.9735 307.911 17.7434 308.445 16.7956C309.231 17.0836 311.111 17.246 308.927 17.4973C315.818 17.2145 319.279 17.9529 324.034 17.157C324.825 17.445 322.557 17.5811 323.259 17.7539C323.814 17.6911 325.448 17.5026 326.165 17.6754C326.867 17.8482 325.154 17.9162 324.065 18.0419C331.103 17.9948 331.815 17.1046 332.323 16.2668C335.889 16.6647 337.669 16.6071 340.246 16.0573C341.487 16.3296 343.56 16.6176 339.188 16.7118C341.649 16.7537 354.216 17.1099 354.462 16.4449C355.232 16.6124 357.903 16.492 358.547 16.4186C364.066 16.4605 364.553 16.5181 369.973 16.4553L368.47 16.3453C370.611 15.5389 372.973 16.1673 377.345 16.0678L377.22 16.1516C387.237 16.7328 381.545 15.8741 391.431 16.5391L390.892 16.0364C391.813 14.9577 399.647 16.6752 405.386 16.2615L403.318 15.9736C406.449 15.6018 412.073 17.445 415.22 17.5759C415.906 17.6701 414.136 17.7277 413.178 17.7958C421.415 18.4346 414.246 17.136 420.383 16.9842C421.514 17.3402 418.922 17.8849 423.053 17.9529C425.111 18.2409 435.034 16.8009 440.674 17.4816C439.433 17.2094 438.197 16.937 441.051 16.7276C445.423 16.6281 452.864 17.7592 456.812 16.9004C457.367 16.9737 457.577 17.047 457.603 17.1151C460.944 16.8951 468.458 16.7433 470.469 16.2773C473.553 18.0105 491.236 15.4342 491.163 17.0313L501.437 16.9475L501.17 17.1098C507.736 17.2145 510.061 16.8323 512.37 16.45C513.889 16.56 512.779 16.7066 512.653 16.7904C522.251 17.1151 523.204 17.047 531.253 16.2459L532.09 16.7643C534.269 16.4606 545.967 17.5759 555.376 16.9737C555.282 17.0313 555.088 17.1308 554.34 17.2041C564.928 16.5967 579.694 18.6441 583.574 16.7538L590.565 16.2877C581.522 16.1411 591.911 15.4656 588.193 15.1514C591.748 15.0415 597.383 15.7222 593.015 15.8165L592.329 15.7222C590.722 16.7067 603.567 16.073 603.321 16.7433C621.114 16.6962 638.451 17.2408 655.119 17.2827L653.197 16.5181L659.009 16.56C660.533 16.7381 661.057 17.157 656.909 17.1255C659.088 17.5602 663.863 16.7642 663.984 16.5967C672.105 16.9056 660.811 17.4921 663.303 17.5078L666.686 17.4502L665.921 17.3612C668.66 17.047 668.906 16.7171 673.891 16.7538C677.043 16.9056 675.509 17.225 676.75 17.2565C676.745 17.3088 677.164 17.335 678.656 17.2774L685.982 17.3403L683.055 16.7328C686.301 16.4343 689.94 16.7642 686.563 16.0783C691.522 17.136 713.881 16.4553 716.929 16.7852C721.474 16.3453 725.961 16.3506 731.522 16.4029C730.14 16.2772 729.313 15.5965 734.109 15.6803C732.355 17.0836 742.891 16.2878 746.766 17.2984C743.304 16.6281 760.396 17.1308 754.96 16.183C758.961 16.2982 755.201 16.7067 758.238 17.0366C767.763 16.492 779.226 17.3874 790.997 17.2041C791.18 17.0208 789.211 16.738 791.735 16.4658L797.951 17.3874C800.276 17.2983 800.093 16.3244 804.339 16.9632C803.737 16.8062 802.842 16.5757 804.402 16.5181C827.463 17.4135 851.519 15.7851 874.936 17.4712C871.763 17.1151 873.878 17.0784 876.297 17.068C874.721 16.9842 876.334 16.6124 876.025 16.3611L885.828 17.0522C887.613 16.361 896.337 17.0051 897.363 16.3453L894.258 16.4658C898.39 15.6855 888.483 14.7273 889.085 13.7271C884.461 14.6173 876.894 12.4128 869.312 13.6853C867.637 13.4811 870.742 13.3606 869.846 13.1302C867.924 13.5596 865.6 13.6486 861.301 13.4548L861.787 13.3501C849.697 13.4549 844.518 13.0307 830.935 12.748L831.94 13.2454C829.024 13.1773 828.406 13.0255 827.039 12.8998C823.688 13.6539 835.234 12.9417 832.186 13.769C828.317 12.7584 811.607 13.7533 808.989 12.6066C804.502 12.6013 810.304 13.1826 805.816 13.1721L804.627 12.8631L803.491 13.2611C800.548 13.193 799.061 12.8055 798.951 12.5437C799.663 12.5751 800.983 12.4705 801.747 12.4495C797.93 12.083 790.987 12.5752 789.672 12.4547L793.987 12.6485C781.734 12.9365 766.774 12.5333 754.94 13.1616L755.84 13.3973C746.802 13.8319 748.598 13.1407 738.675 13.3397L739.037 13.2821C737.052 13.5177 734.397 13.6329 731.685 13.6067C734.193 13.3344 726.972 13.0726 730.255 12.7689C720.453 13.235 725.406 13.1355 718.934 14.0047L717.442 13.6172C715.237 13.968 715.049 14.1513 710.095 14.256C714.159 13.9209 706.932 13.6643 711.488 13.2245C701.089 12.3762 696.046 14.0833 691.271 12.8422C686.495 13.9157 700.272 13.4392 697.596 13.6696C699.837 14.0204 693.653 14.4707 690.391 14.366C687.066 14.3398 684.741 12.9888 676.384 13.0098C677.216 13.0098 677.274 12.9312 678.101 12.9365C674.975 12.6642 671.975 13.3082 668.136 12.8631C665.984 13.5124 663.156 12.8265 662.533 13.6538L670.199 13.4601C665.853 13.6748 661.779 14.6487 654.616 14.1775C655.176 14.0099 657.302 13.79 658.768 13.6696C656.674 13.4234 654.736 13.8319 652.569 13.5805C653.187 12.7532 661.884 13.4025 666.544 12.7689C664.298 12.4181 657.737 13.3711 660.078 12.4704C656.716 13.6119 651.841 12.3238 646.185 13.1983L646.557 12.7008C645.662 12.7794 643.808 13.015 642.159 12.9993L645.143 12.3552C640.562 12.905 636.31 11.8735 631.916 12.172C641.117 12.1563 633.979 12.7689 637.875 13.1354C626.523 13.8005 631.351 11.8368 618.642 12.0724C620.365 12.0044 625.099 12.3709 622.412 12.6013C619.993 12.4966 616.799 12.3081 615.312 12.0463C606.892 12.151 616.605 12.5594 613.018 12.8631C610.154 12.2557 608.882 13.1093 605.195 13.303L605.169 12.7951C595.576 12.4704 602.624 13.8476 593.989 13.4548L597.639 12.7532L593.136 12.9365L594.063 12.3605C589.167 12.7846 587.638 12.6747 582.836 12.5176C583.951 12.8737 582.208 13.4339 577.961 13.4496C575.065 13.1511 579.584 12.9679 573.562 13.0412C574.924 12.727 576.411 12.329 579.034 12.7951C579.301 12.6327 580.375 12.4757 580.652 12.3134C577.531 11.9678 572.808 12.2348 570.63 12.24C571.468 12.261 572.473 12.2872 572.986 12.3605L564.252 13.0621C562.875 12.8736 563.969 12.7218 565.048 12.5699C563.278 12.6223 562.058 12.8579 559.456 12.8998C560.131 12.4914 559.969 12.0672 563.65 11.8735L555.329 12.329C554.774 12.151 551.062 11.8368 552.14 11.685C547.527 11.4441 540.825 12.4809 534.708 12.1615C534.389 12.24 533.755 12.3186 532.452 12.3762C526.707 12.2819 521.612 11.7792 514.8 12.3447L510.935 11.6064C505.6 11.774 516.167 12.5333 507.286 12.8108C500.997 13.0464 504.94 12.1824 502.73 11.9782C499.604 12.35 494.163 13.104 488.388 12.5071C490.299 12.371 491.802 12.4757 493.587 12.4233H493.561ZM427.766 12.748C429.039 12.6432 431.584 12.3133 432.516 12.6118C431.065 13.193 429.939 12.9155 427.766 12.748ZM327.746 13.9628C328.694 13.7952 330.16 13.879 331.815 14.0675C330.616 14.1094 329.255 14.0884 327.746 13.9628ZM49.13 17.4816C49.1824 17.4712 49.2243 17.4659 49.2662 17.4554C52.1095 17.6544 51.0989 17.5759 49.13 17.4816ZM43.2234 17.2617C42.6317 17.3298 42.6683 17.4031 42.9197 17.4712C43.3334 17.3455 44.6582 17.335 46.1662 17.3716C45.7473 17.2407 44.9828 17.1465 43.2182 17.2617H43.2234ZM677.394 17.0627L676.247 16.9318C678.845 16.7852 678.117 16.9161 677.394 17.0627Z" fill="#202020"/>
<path d="M365.094 2.27637C365.455 2.36015 365.555 2.45441 365.638 2.54867C366.141 2.46489 366.151 2.36539 365.094 2.27637Z" fill="#202020"/>
<path d="M560.484 1.16095C560.552 1.16095 560.615 1.16095 560.683 1.16619C560.793 1.13477 560.85 1.10333 560.882 1.07715L560.479 1.16095H560.484Z" fill="#202020"/>
<path d="M160.703 1.9834C161.918 2.05671 162.599 2.15096 163.049 2.24522C163.117 2.11954 162.562 2.01482 160.703 1.9834Z" fill="#202020"/>
<path d="M37.931 7.12566L41.7117 6.99475C39.8842 7.02093 39.2296 6.91093 38.3028 6.82715C38.3866 6.94758 39.1092 7.11518 37.9258 7.12566H37.931Z" fill="#202020"/>
<path d="M34.4334 5.4447C34.1349 5.02055 31.7629 5.16193 29.1133 5.24047C29.2704 5.24047 29.4222 5.24047 29.5846 5.24047C28.8043 5.83742 31.6267 5.63844 34.4387 5.4447H34.4334Z" fill="#202020"/>
<path d="M28.4964 5.25586C27.6795 5.2768 26.8469 5.28729 26.0458 5.26634C25.7368 5.50198 27.0407 5.31346 28.4964 5.25586Z" fill="#202020"/>
<path d="M61.7352 6.54887C60.4784 6.43891 60.9445 7.09343 60.2375 6.92063C58.8342 7.45998 68.6157 6.26611 61.7352 6.54887Z" fill="#202020"/>
<path d="M32.2871 4.04688L33.2349 4.57051L34.722 4.14634L32.2871 4.04688Z" fill="#202020"/>
<path d="M53.2065 4.42886L48.9703 4.28223C49.0331 4.37124 48.499 4.42365 47.834 4.46031C50.4417 4.47602 53.3007 4.58071 53.2013 4.42886H53.2065Z" fill="#202020"/>
<path d="M47.8385 4.46523C46.4823 4.45476 45.189 4.46519 44.4297 4.55421C45.1628 4.54897 46.7494 4.5333 47.8385 4.46523Z" fill="#202020"/>
<path d="M38.0723 3.88965L39.3238 3.99966L42.3137 4.03628L38.0723 3.88965Z" fill="#202020"/>
<path d="M98.7205 4.53373L103.339 4.38192C103.81 4.20388 102.548 4.09389 100.831 4.16197C99.7259 4.28764 98.0083 4.35575 98.7205 4.52855V4.53373Z" fill="#202020"/>
<path d="M84.75 3.09411C86.0015 3.20407 86.0853 3.31928 86.7869 3.49208L86.9283 2.84277L84.75 3.09411Z" fill="#202020"/>
<path d="M98.2234 2.94198C98.6842 2.76394 104.931 2.42356 99.0717 2.46545C98.6004 2.64349 93.9767 2.79536 98.2234 2.94198Z" fill="#202020"/>
<path d="M167.847 3.76465L166.674 3.77513L166.841 4.84337L167.847 3.76465Z" fill="#202020"/>
<path d="M229.212 1.21391C223.735 0.957328 227.913 1.8737 222.965 1.55429C221.682 1.80563 227.007 1.81612 225.693 2.03081C228.997 1.76376 230.736 1.91558 229.217 1.21391H229.212Z" fill="#202020"/>
<path d="M225.692 2.03125C225.163 2.07314 224.603 2.12547 224.006 2.19354C224.964 2.12547 225.414 2.07838 225.692 2.03125Z" fill="#202020"/>
<path d="M443.986 0.380859L443.719 0.543153C444.263 0.72119 445.091 0.731685 446.74 0.763104L443.986 0.380859Z" fill="#202020"/>
<path d="M491.742 0.889389L490.92 0.878906L492.454 1.49158L491.742 0.889389Z" fill="#202020"/>
<path d="M531.821 0.108831C530.187 0.0826487 528.26 0.218812 526.621 0.19263C530.187 0.0826666 532.266 0.87334 531.821 0.108831Z" fill="#202020"/>
</svg>
