<svg width="265" height="376" viewBox="0 0 265 376" fill="none" xmlns="http://www.w3.org/2000/svg">
<path d="M102.536 3.49999C38.9549 11.5164 -11.8498 75.9384 7.1486 149.11C21.7837 205.477 96.27 243.391 147.003 205.125C159.159 195.957 157.937 174.712 151.622 162.413C141.633 142.957 123.234 137.864 102.537 142.821C64.9375 151.825 26.4735 192.087 37.0553 233.101C53.6149 297.284 117.243 330.765 179.057 338.991C191.37 340.63 284.347 337.341 234.271 322.545C225.183 319.86 197.67 312.893 206.571 316.144C221.33 321.535 229.847 323.949 245.949 324.408C249.146 324.5 265.919 322.64 259.913 329.567C247.616 343.752 236.47 358.817 223.828 372.742" stroke="#1C1C1C" stroke-width="6" stroke-linecap="round"/>
</svg>
