<svg width="24" height="30" viewBox="0 0 24 30" fill="none" xmlns="http://www.w3.org/2000/svg">
<path d="M12 0C5.74805 0 0.75 4.99805 0.75 11.25C0.75 13.4121 1.39453 15.082 2.51367 16.7754L10.8164 29.373C11.0684 29.7539 11.502 30 12 30C12.498 30 12.9375 29.748 13.1836 29.373L21.4863 16.7754C22.6055 15.082 23.25 13.4121 23.25 11.25C23.25 4.99805 18.252 0 12 0ZM12 17.4961C8.54883 17.4961 5.74805 14.6953 5.74805 11.2383C5.74805 7.78125 8.54883 4.98047 12 4.98047C15.4512 4.98047 18.252 7.78125 18.252 11.2383C18.252 14.6953 15.4512 17.4961 12 17.4961Z" fill="white"/>
</svg>
