<svg width="26" height="26" viewBox="0 0 26 26" fill="none" xmlns="http://www.w3.org/2000/svg">
<path fill-rule="evenodd" clip-rule="evenodd" d="M18.6898 25.6663C16.8898 25.6001 11.7885 24.8951 6.44601 19.5538C1.10476 14.2113 0.401006 9.11134 0.333506 7.31009C0.233506 4.56509 2.33601 1.89884 4.76476 0.857586C5.05723 0.731295 5.37751 0.683212 5.69417 0.718056C6.01083 0.752899 6.31299 0.869473 6.57101 1.05634C8.57101 2.51384 9.95101 4.71884 11.136 6.45259C11.3967 6.8335 11.5082 7.29702 11.4492 7.75483C11.3902 8.21264 11.1648 8.63274 10.816 8.93509L8.37726 10.7463C8.25943 10.8314 8.1765 10.9564 8.14385 11.098C8.11121 11.2396 8.13107 11.3883 8.19976 11.5163C8.75226 12.5201 9.73476 14.0151 10.8598 15.1401C11.986 16.2651 13.551 17.3126 14.6248 17.9276C14.7594 18.0032 14.9178 18.0243 15.0676 17.9866C15.2173 17.949 15.3469 17.8554 15.4298 17.7251L17.0173 15.3088C17.3091 14.9211 17.7397 14.6614 18.2187 14.5841C18.6978 14.5067 19.1882 14.6177 19.5873 14.8938C21.346 16.1113 23.3985 17.4676 24.901 19.3913C25.103 19.6512 25.2316 19.9606 25.2731 20.2871C25.3147 20.6137 25.2678 20.9454 25.1373 21.2476C24.091 23.6888 21.4435 25.7676 18.6898 25.6663Z" fill="white"/>
</svg>
