<svg width="30" height="30" viewBox="0 0 30 30" fill="none" xmlns="http://www.w3.org/2000/svg">
<path d="M8.67383 6.24539C8.6735 6.90843 8.40979 7.54419 7.94071 8.01279C7.47164 8.4814 6.83562 8.74447 6.17258 8.74414C5.50954 8.74381 4.87378 8.4801 4.40518 8.01102C3.93657 7.54195 3.6735 6.90593 3.67383 6.24289C3.67416 5.57985 3.93787 4.9441 4.40695 4.47549C4.87602 4.00688 5.51204 3.74381 6.17508 3.74414C6.83812 3.74447 7.47387 4.00818 7.94248 4.47726C8.41109 4.94633 8.67416 5.58235 8.67383 6.24539ZM8.74883 10.5954H3.74883V26.2454H8.74883V10.5954ZM16.6488 10.5954H11.6738V26.2454H16.5988V18.0329C16.5988 13.4579 22.5613 13.0329 22.5613 18.0329V26.2454H27.4988V16.3329C27.4988 8.62039 18.6738 8.90789 16.5988 12.6954L16.6488 10.5954Z" fill="#FAFAFA"/>
</svg>
