<svg width="16" height="30" viewBox="0 0 16 30" fill="none" xmlns="http://www.w3.org/2000/svg">
<path d="M15.5729 0.22265V4.98163H12.7423C12.3671 4.93367 11.9859 4.96699 11.6247 5.07934C11.2636 5.19169 10.9308 5.38042 10.649 5.63274L10.6515 5.63024C10.2464 6.19853 10.0551 6.89171 10.1116 7.58732V7.57732V10.9841H15.3967L14.6968 16.3204H10.1191V30H4.59901V16.3192H0V10.9841H4.59901V7.05368C4.53922 6.10438 4.67498 5.15292 4.99786 4.25822C5.32074 3.36352 5.82388 2.54464 6.47611 1.8523L6.47236 1.85605C7.13806 1.22525 7.92497 0.736269 8.78535 0.418756C9.64573 0.101242 10.5616 -0.0381801 11.4775 0.00894586H11.4613C12.8838 -0.0145198 14.3062 0.0627401 15.7179 0.240146L15.5716 0.225149L15.5729 0.22265Z" fill="#FAFAFA"/>
</svg>
